<?xml version="1.0" encoding="UTF-8"?>
<svg width="204px" height="229px" viewBox="0 0 204 229" version="1.1" xmlns="http://www.w3.org/2000/svg" xmlns:xlink="http://www.w3.org/1999/xlink">
    <!-- Generator: Sketch 48.2 (47327) - http://www.bohemiancoding.com/sketch -->
    <title>android</title>
    <desc>Created with Sketch.</desc>
    <defs></defs>
    <g id="logos/android" stroke="none" stroke-width="1" fill="none" fill-rule="evenodd" transform="translate(0.000000, 2.000000)">
        <g id="android">
            <path d="M69.885,137.092 C77.75,137.092 84.126,143.468 84.126,151.333 L84.126,212.423 C84.126,220.288 77.75,226.663 69.885,226.663 C62.021,226.663 55.645,220.288 55.645,212.423 L55.645,151.333 C55.645,143.469 62.021,137.093 69.885,137.093 L69.885,137.092 Z" id="Shape" fill="#A4C639" fill-rule="nonzero"></path>
            <path d="M37.374,63.645 C37.327,64.185 37.286,64.731 37.286,65.283 L37.286,157.84 C37.286,167.794 45.165,175.813 54.946,175.813 L149.07,175.813 C158.852,175.813 166.731,167.793 166.731,157.84 L166.731,65.283 C166.731,64.731 166.711,64.183 166.665,63.645 L37.374,63.645 Z" id="Shape" fill="#A4C639" fill-rule="nonzero"></path>
            <path d="M134.133,137.092 C141.998,137.092 148.374,143.468 148.374,151.333 L148.374,212.423 C148.374,220.288 141.998,226.663 134.133,226.663 C126.269,226.663 119.893,220.288 119.893,212.423 L119.893,151.333 C119.893,143.469 126.269,137.093 134.133,137.093 L134.133,137.092 Z M14.405,71.882 C22.269,71.882 28.645,78.258 28.645,86.123 L28.645,147.213 C28.645,155.078 22.269,161.454 14.405,161.454 C6.54,161.454 0.164,155.078 0.164,147.214 L0.164,86.124 C0.163,78.259 6.539,71.882 14.405,71.882 Z M189.614,71.882 C197.478,71.882 203.854,78.258 203.854,86.123 L203.854,147.213 C203.854,155.078 197.478,161.454 189.614,161.454 C181.749,161.454 175.373,155.078 175.373,147.214 L175.373,86.124 C175.373,78.259 181.749,71.882 189.614,71.882 Z M37.79,57.565 C38.186,29.135 63,5.825 94.852,2.753 L109.164,2.753 C141.018,5.826 165.83,29.137 166.226,57.565 L37.79,57.565 Z" id="Shape" fill="#A4C639" fill-rule="nonzero"></path>
            <path d="M42.743,0.009 L57.765,26.029 M161.276,0.009 L146.253,26.029" id="Shape" stroke="#A4C639" stroke-width="3" stroke-linecap="round" stroke-linejoin="round"></path>
            <path d="M82.878,32.087 C82.89,36.061 79.601,39.292 75.531,39.303 C71.463,39.313 68.155,36.101 68.143,32.127 L68.143,32.087 C68.132,28.112 71.421,24.882 75.49,24.871 C79.558,24.86 82.866,28.071 82.878,32.047 L82.878,32.087 Z M137.874,32.087 C137.886,36.061 134.597,39.292 130.527,39.303 C126.459,39.313 123.151,36.101 123.139,32.127 L123.139,32.087 C123.128,28.112 126.417,24.882 130.486,24.871 C134.554,24.86 137.862,28.071 137.874,32.047 L137.874,32.087 Z" id="Shape" fill="#FFFFFF" fill-rule="nonzero"></path>
        </g>
    </g>
</svg>