<?xml version="1.0" encoding="UTF-8"?>
<svg width="50px" height="88px" viewBox="0 0 50 88" version="1.1" xmlns="http://www.w3.org/2000/svg" xmlns:xlink="http://www.w3.org/1999/xlink">
    <!-- Generator: Sketch 48.2 (47327) - http://www.bohemiancoding.com/sketch -->
    <title>Group 3</title>
    <desc>Created with Sketch.</desc>
    <defs></defs>
    <g id="Evolve-1.0---Landing-Page" stroke="none" stroke-width="1" fill="none" fill-rule="evenodd" transform="translate(-1018.000000, -2381.000000)">
        <g id="technologies-we-use" transform="translate(-422.000000, 2194.000000)">
            <g id="list-groups" transform="translate(1397.000000, 122.000000)">
                <g id="Mobile-Development">
                    <g id="1" transform="translate(0.000000, 55.000000)">
                        <g id="Group-3" transform="translate(43.000000, 12.000000)">
                            <g id="logos/android">
                                <g id="android">
                                    <path d="M17.1286765,33.2161233 C19.0563725,33.2161233 20.6191176,34.7609692 20.6191176,36.6665859 L20.6191176,51.4681278 C20.6191176,53.3737445 19.0563725,54.918348 17.1286765,54.918348 C15.2012255,54.918348 13.6384804,53.3737445 13.6384804,51.4681278 L13.6384804,36.6665859 C13.6384804,34.7612115 15.2012255,33.2163656 17.1286765,33.2163656 L17.1286765,33.2161233 Z" id="Shape" fill="#A4C639" fill-rule="nonzero"></path>
                                    <path d="M9.16029412,15.4205947 C9.14877451,15.5514317 9.13872549,15.6837225 9.13872549,15.817467 L9.13872549,38.2431718 C9.13872549,40.6549339 11.0698529,42.5978634 13.4671569,42.5978634 L36.5367647,42.5978634 C38.9343137,42.5978634 40.8654412,40.6546916 40.8654412,38.2431718 L40.8654412,15.817467 C40.8654412,15.6837225 40.8605392,15.5509471 40.8492647,15.4205947 L9.16029412,15.4205947 Z" id="Shape" fill="#A4C639" fill-rule="nonzero"></path>
                                    <path d="M32.8757353,33.2161233 C34.8034314,33.2161233 36.3661765,34.7609692 36.3661765,36.6665859 L36.3661765,51.4681278 C36.3661765,53.3737445 34.8034314,54.918348 32.8757353,54.918348 C30.9482843,54.918348 29.3855392,53.3737445 29.3855392,51.4681278 L29.3855392,36.6665859 C29.3855392,34.7612115 30.9482843,33.2163656 32.8757353,33.2163656 L32.8757353,33.2161233 Z M3.53063725,17.4163436 C5.45808824,17.4163436 7.02083333,18.9611894 7.02083333,20.8668062 L7.02083333,35.668348 C7.02083333,37.5739648 5.45808824,39.1188106 3.53063725,39.1188106 C1.60294118,39.1188106 0.0401960784,37.5739648 0.0401960784,35.6685903 L0.0401960784,20.8670485 C0.0399509804,18.9614317 1.60269608,17.4163436 3.53063725,17.4163436 Z M46.4740196,17.4163436 C48.4014706,17.4163436 49.9642157,18.9611894 49.9642157,20.8668062 L49.9642157,35.668348 C49.9642157,37.5739648 48.4014706,39.1188106 46.4740196,39.1188106 C44.5463235,39.1188106 42.9835784,37.5739648 42.9835784,35.6685903 L42.9835784,20.8670485 C42.9835784,18.9614317 44.5463235,17.4163436 46.4740196,17.4163436 Z M9.2622549,13.947467 C9.35931373,7.05914097 15.4411765,1.41134361 23.2480392,0.667026432 L26.7558824,0.667026432 C34.5632353,1.4115859 40.6446078,7.05962555 40.7416667,13.947467 L9.2622549,13.947467 Z" id="Shape" fill="#A4C639" fill-rule="nonzero"></path>
                                    <path d="M10.4762255,0.00218061674 L14.1580882,6.3065859 M39.5284314,0.00218061674 L35.8463235,6.3065859" id="Shape" stroke="#A4C639" stroke-width="3" stroke-linecap="round" stroke-linejoin="round"></path>
                                    <path d="M20.3132353,7.77438326 C20.3161765,8.7372467 19.510049,9.52008811 18.5125,9.5227533 C17.5154412,9.52517621 16.7046569,8.74693833 16.7017157,7.78407489 L16.7017157,7.77438326 C16.6990196,6.81127753 17.5051471,6.02867841 18.502451,6.02601322 C19.4995098,6.02334802 20.3102941,6.80134361 20.3132353,7.76469163 L20.3132353,7.77438326 Z M33.7926471,7.77438326 C33.7955882,8.7372467 32.9894608,9.52008811 31.9919118,9.5227533 C30.9948529,9.52517621 30.1840686,8.74693833 30.1811275,7.78407489 L30.1811275,7.77438326 C30.1784314,6.81127753 30.9845588,6.02867841 31.9818627,6.02601322 C32.9789216,6.02334802 33.7897059,6.80134361 33.7926471,7.76469163 L33.7926471,7.77438326 Z" id="Shape" fill="#FFFFFF" fill-rule="nonzero"></path>
                                </g>
                            </g>
                            <text id="Android" font-family="OpenSans-SemiBold, Open Sans" font-size="12" font-weight="500" fill="#000000">
                                <tspan x="1.44335938" y="85">Android</tspan>
                            </text>
                        </g>
                    </g>
                </g>
            </g>
        </g>
    </g>
</svg>