<?xml version="1.0" encoding="UTF-8"?>
<svg width="40px" height="40px" viewBox="0 0 40 40" version="1.1" xmlns="http://www.w3.org/2000/svg" xmlns:xlink="http://www.w3.org/1999/xlink">
    <!-- Generator: Sketch 48.2 (47327) - http://www.bohemiancoding.com/sketch -->
    <title>ansible</title>
    <desc>Created with Sketch.</desc>
    <defs></defs>
    <g id="logos/ansible" stroke="none" stroke-width="1" fill="none" fill-rule="evenodd">
        <g id="ansible" fill-rule="nonzero">
            <path d="M39.9810937,19.979375 C39.9810937,30.9879687 31.0576563,39.9114062 20.04875,39.9114062 C9.0409375,39.9114062 0.1165625,30.9879687 0.1165625,19.979375 C0.1165625,8.9715625 9.0409375,0.0471875 20.04875,0.0471875 C31.0575,0.0471875 39.9810937,8.9715625 39.9810937,19.979375" id="Shape" fill="#1A1918"></path>
            <path d="M20.384375,12.2232813 L25.5423437,24.9539063 L17.75125,18.8167187 L20.384375,12.2234375 L20.384375,12.2232813 Z M29.5475,27.8865625 L21.6134375,8.7925 C21.386875,8.241875 20.9340625,7.9503125 20.384375,7.9503125 C19.8335937,7.9503125 19.3478125,8.241875 19.12125,8.7925 L10.413125,29.73625 L13.3920312,29.73625 L16.8392187,21.1010937 L27.1267187,29.4120312 C27.5403125,29.7465625 27.8389062,29.8979687 28.226875,29.8979687 C29.0040625,29.8979687 29.6834375,29.3151562 29.6834375,28.474375 C29.6834375,28.3375 29.635,28.1201562 29.5475,27.8865625 Z" id="Shape" fill="#FFFFFF"></path>
        </g>
    </g>
</svg>