<?xml version="1.0" encoding="UTF-8"?>
<svg width="74px" height="42px" viewBox="0 0 74 42" version="1.1" xmlns="http://www.w3.org/2000/svg" xmlns:xlink="http://www.w3.org/1999/xlink">
    <!-- Generator: Sketch 48.2 (47327) - http://www.bohemiancoding.com/sketch -->
    <title>docker</title>
    <desc>Created with Sketch.</desc>
    <defs></defs>
    <g id="logos/docker" stroke="none" stroke-width="1" fill="none" fill-rule="evenodd">
        <g id="docker" fill-rule="nonzero">
            <path d="M42.75847,13.2629747 L49.399437,13.2629747 L49.399437,20.0420798 L52.7570956,20.0420798 C54.3079905,20.0420798 55.9027404,19.7662754 57.3711533,19.2694794 C58.0928713,19.0249965 58.9025894,18.6850987 59.6144328,18.2573263 C58.6769255,17.0352023 58.1982973,15.4920315 58.0577292,13.9709018 C57.8660456,11.9016434 58.2842645,9.20856235 59.6864594,7.58911753 L60.3846525,6.78287529 L61.2164434,7.45078028 C63.3107324,9.13083828 65.072189,11.4788013 65.3826584,14.1553515 C67.9044601,13.4146527 70.8653915,13.5898218 73.0880505,14.8708189 L74,15.3963265 L73.52021,16.3319155 C71.6402581,19.9953874 67.7098721,21.1305068 63.8674863,20.9295263 C58.1178482,35.2298854 45.6000348,42 30.4224657,42 C22.580862,42 15.3869166,39.0728767 11.2901144,32.1258528 L11.2230251,32.0127469 L10.6261919,30.7999033 C9.24142278,27.7419832 8.78138203,24.3920177 9.0933036,21.0446623 L9.18711242,20.0420798 L14.8661761,20.0420798 L14.8661761,13.2629747 L21.5068527,13.2629747 L21.5068527,6.63148736 L34.7890772,6.63148736 L34.7890772,0 L42.75847,0 L42.75847,13.2629747 Z" id="Shape" fill="#364548"></path>
            <path d="M63.7959245,15.5545141 C64.2381017,12.054394 61.6660896,9.30534861 60.0710209,8 C58.2327981,10.1642233 57.9472433,15.8362039 60.8310582,18.2242516 C59.2215676,19.6799915 55.8303882,20.9994392 52.3578689,20.9994392 L10.0885497,20.9994392 C9.75107581,24.6907795 10.3873726,28.0901493 11.8408177,30.9995728 L12.3216458,31.8954578 C12.626097,32.4212946 12.9587877,32.9296364 13.3182031,33.4181687 C15.0560492,33.5318433 16.6583288,33.5709098 18.1241767,33.5380117 L18.1247536,33.5380117 C21.0053956,33.4733905 23.3558865,33.1267858 25.1372869,32.4981975 C25.3990899,32.4152668 25.6782744,32.5588866 25.7680781,32.822693 C25.8578818,33.0864994 25.725891,33.3752743 25.4698572,33.4751529 C25.2327602,33.5591605 24.9858563,33.6372934 24.7308761,33.7116078 L24.7300107,33.7116078 C23.327331,34.1196027 21.8231207,34.3939491 19.8825019,34.5158482 C19.9978776,34.5179043 19.7625112,34.5334722 19.7619343,34.5334722 C19.6958818,34.5378782 19.6128113,34.5475714 19.5464703,34.5510962 C18.7826833,34.5948623 17.9583242,34.6039681 17.1155049,34.6039681 C16.1936533,34.6039681 15.2859352,34.5863441 14.2709177,34.5334722 L14.2449582,34.5510962 C17.7668006,38.5822852 23.2736813,41 30.1766077,41 C44.7854752,41 57.1768222,34.405111 62.6640891,19.5995087 C66.5568643,20.0063286 70.2982089,18.9953003 72,15.6120858 C69.2892486,14.0191727 65.8031727,14.5270368 63.7959245,15.5545141" id="Shape" fill="#22A0C8"></path>
            <path d="M64.7328235,15.4543668 C65.1794773,12.0006464 62.5814263,9.28804409 60.9702092,8 C59.1133763,10.1355331 58.8249305,15.7323223 61.737941,18.0887126 C60.112156,19.5251542 56.6866445,20.8271106 53.1789696,20.8271106 L13.0101341,20.8271106 C12.8359012,26.4053501 14.9167895,30.6396067 18.5984059,33.1994639 L18.59928,33.1994639 C21.5090855,33.1356994 23.8833726,32.7936894 25.6828078,32.1734342 C25.9472613,32.0916028 26.2292723,32.2333187 26.3199851,32.4936279 C26.410698,32.7539372 26.2773709,33.0388839 26.0187451,33.1374384 C25.7792477,33.2203323 25.5298441,33.2974295 25.2722825,33.3707587 L25.2714084,33.3707587 C23.854528,33.7733449 22.2045602,34.0788352 20.2442947,34.1991183 C20.243712,34.1991183 20.1968031,34.1541933 20.1962204,34.1541933 C25.218381,36.7169489 32.5003245,36.707674 40.8492259,33.5174172 C50.2106009,29.9396458 58.9219532,23.1237941 65,15.327997 C64.9085132,15.3691542 64.8193572,15.4111808 64.7328235,15.4543668" id="Shape" fill="#37B1D9"></path>
            <path d="M10,26 C10.2640007,27.9117035 10.8355188,29.7015827 11.6826421,31.3318693 L12.1662566,32.1979857 C12.4724202,32.7063817 12.8070408,33.197835 13.1685891,33.6700996 C14.9167962,33.779997 16.5283612,33.8177653 18.0029939,33.7859604 C20.9003296,33.7234864 23.2644417,33.3883988 25.0561654,32.7806974 C25.3194857,32.7005223 25.6002881,32.8393699 25.6906122,33.0944105 C25.7809363,33.3494511 25.6481806,33.6286305 25.3906631,33.7251903 C25.1521921,33.8064064 24.9038573,33.8819431 24.6473994,33.9537882 L24.6465291,33.9537882 C23.2357208,34.3482261 21.6015271,34.6304949 19.6496623,34.7486275 C19.5826467,34.7526031 19.4657321,34.753455 19.3981363,34.7571466 C18.6305034,34.7991746 17.8097802,34.8250161 16.9617866,34.8250161 C16.0348829,34.8250161 15.0868011,34.8076938 14.0664818,34.7568627 C17.6087335,38.6541025 23.1817602,41 30.1246896,41 C42.7038898,41 53.6480261,36.3263792 60,26 L10,26" id="Shape" fill="#1B81A5"></path>
            <path d="M18.1141927,34.1224365 C20.9733196,34.0572626 23.306255,33.7076939 25.0743503,33.0737303 C25.334198,32.9900904 25.6112973,33.1349383 25.7004302,33.4010007 C25.7895632,33.6670631 25.6585582,33.9583074 25.4044367,34.0590401 C25.1691106,34.1437661 24.9240507,34.2225672 24.6709749,34.2975171 C23.2779128,34.7090009 21.6312023,35.0034681 19.7047914,35.1267059 C24.6391973,37.7455088 31.7737023,37.7078857 39.9766224,34.4474169 C44.9390842,32.4744273 49.7151745,29.5374576 54,26 L13,26 C13.7420504,29.501612 15.5253188,32.2504664 18.1141927,34.1224365 Z" id="Shape" fill="#1D91B4"></path>
            <path d="M16,14.4284509 L21.5714185,14.4284509 L21.5714185,20 L16,20 L16,14.4284509 Z M16.4641443,14.8928873 L16.9038304,14.8928873 L16.9038304,19.5358448 L16.4641443,19.5358448 L16.4641443,14.8928873 Z M17.2906642,14.8928873 L17.7480614,14.8928873 L17.7480614,19.5358448 L17.2909453,19.5358448 L17.2909453,14.8928873 L17.2906642,14.8928873 Z M18.134614,14.8928873 L18.5920112,14.8928873 L18.5920112,19.5358448 L18.134614,19.5358448 L18.134614,14.8928873 Z M18.9791262,14.8928873 L19.4362422,14.8928873 L19.4362422,19.5358448 L18.9791262,19.5358448 L18.9791262,14.8928873 Z M19.8233572,14.8928873 L20.2804732,14.8928873 L20.2804732,19.5358448 L19.8233572,19.5358448 L19.8233572,14.8928873 Z M20.667307,14.8928873 L21.1072742,14.8928873 L21.1072742,19.5358448 L20.667307,19.5358448 L20.667307,14.8928873 Z M22.4283003,8 L28,8 L28,13.5712679 L22.4280192,13.5712679 L22.4280192,8 L22.4283003,8 Z M22.8927258,8.46443632 L23.3321307,8.46443632 L23.3321307,13.1071127 L22.8927258,13.1071127 L22.8927258,8.46443632 Z M23.7192456,8.46443632 L24.1763617,8.46443632 L24.1763617,13.1071127 L23.7195268,13.1071127 L23.7195268,8.46443632 L23.7192456,8.46443632 Z M24.5631955,8.46443632 L25.0203116,8.46443632 L25.0203116,13.1071127 L24.5631955,13.1071127 L24.5631955,8.46443632 Z M25.4074265,8.46443632 L25.8645426,8.46443632 L25.8645426,13.1071127 L25.4074265,13.1071127 L25.4074265,8.46443632 Z M26.2516575,8.46443632 L26.7090547,8.46443632 L26.7090547,13.1071127 L26.2516575,13.1071127 L26.2516575,8.46443632 Z M27.0956074,8.46443632 L27.5358557,8.46443632 L27.5358557,13.1071127 L27.0956074,13.1071127 L27.0956074,8.46443632 Z" id="Shape" fill="#23A3C2"></path>
            <path d="M23.0003027,14 L29,14 L29,20 L23,20 L23,14 L23.0003027,14 Z M23.5004036,14.5001514 L23.9735621,14.5001514 L23.9735621,19.5001514 L23.5004036,19.5001514 L23.5004036,14.5001514 Z M24.3904137,14.5001514 L24.8826438,14.5001514 L24.8826438,19.5001514 L24.3907164,19.5001514 L24.3907164,14.5001514 L24.3904137,14.5001514 Z M25.2991927,14.5001514 L25.7914228,14.5001514 L25.7914228,19.5001514 L25.2991927,19.5001514 L25.2991927,14.5001514 Z M26.2082745,14.5001514 L26.7005045,14.5001514 L26.7005045,19.5001514 L26.2082745,19.5001514 L26.2082745,14.5001514 Z M27.1173562,14.5001514 L27.609889,14.5001514 L27.609889,19.5001514 L27.1173562,19.5001514 L27.1173562,14.5001514 Z M28.0261352,14.5001514 L28.5002018,14.5001514 L28.5002018,19.5001514 L28.0261352,19.5001514 L28.0261352,14.5001514 Z" id="Shape" fill="#34BBDE"></path>
            <path d="M29,14 L35,14 L35,20 L29,20 L29,14 Z M29.4998486,14.5001514 L29.9730548,14.5001514 L29.9730548,19.5001514 L29.4998486,19.5001514 L29.4998486,14.5001514 Z M30.3899485,14.5001514 L30.8822283,14.5001514 L30.8822283,19.5001514 L30.3899485,19.5001514 L30.3899485,14.5001514 Z M31.299122,14.5001514 L31.7914018,14.5001514 L31.7914018,19.5001514 L31.299122,19.5001514 L31.299122,14.5001514 Z M32.2082955,14.5001514 L32.7005752,14.5001514 L32.7005752,19.5001514 L32.2082955,19.5001514 L32.2082955,14.5001514 Z M33.1171662,14.5001514 L33.6100515,14.5001514 L33.6100515,19.5001514 L33.1171662,19.5001514 L33.1171662,14.5001514 Z M34.0263397,14.5001514 L34.4998486,14.5001514 L34.4998486,19.5001514 L34.0263397,19.5001514 L34.0263397,14.5001514 Z" id="Shape" fill="#23A3C2"></path>
            <path d="M29,8 L34.5715491,8 L34.5715491,13.5712679 L29,13.5712679 L29,8 Z M29.4641552,8.46443632 L29.9035704,8.46443632 L29.9035704,13.1071127 L29.4641552,13.1071127 L29.4641552,8.46443632 Z M30.2906944,8.46443632 L30.7478212,8.46443632 L30.7478212,13.1071127 L30.2906944,13.1071127 L30.2906944,8.46443632 Z M31.1349452,8.46443632 L31.592072,8.46443632 L31.592072,13.1071127 L31.1349452,13.1071127 L31.1349452,8.46443632 Z M31.979196,8.46443632 L32.4363227,8.46443632 L32.4363227,13.1071127 L31.979196,13.1071127 L31.979196,8.46443632 Z M32.8231656,8.46443632 L33.2808547,8.46443632 L33.2808547,13.1071127 L32.8231656,13.1071127 L32.8231656,8.46443632 Z M33.6674164,8.46443632 L34.1071127,8.46443632 L34.1071127,13.1071127 L33.6674164,13.1071127 L33.6674164,8.46443632 Z M35.4284509,14.4284509 L41,14.4284509 L41,20 L35.4284509,20 L35.4284509,14.4284509 Z M35.8928873,14.8928873 L36.3323025,14.8928873 L36.3323025,19.5358448 L35.8928873,19.5358448 L35.8928873,14.8928873 Z M36.7194265,14.8928873 L37.1765533,14.8928873 L37.1765533,19.5358448 L36.7194265,19.5358448 L36.7194265,14.8928873 Z M37.5633961,14.8928873 L38.0205229,14.8928873 L38.0205229,19.5358448 L37.5633961,19.5358448 L37.5633961,14.8928873 Z M38.4076469,14.8928873 L38.8650548,14.8928873 L38.8650548,19.5358448 L38.4076469,19.5358448 L38.4076469,14.8928873 Z M39.2518977,14.8928873 L39.7093056,14.8928873 L39.7093056,19.5358448 L39.2518977,19.5358448 L39.2518977,14.8928873 Z M40.0961484,14.8928873 L40.5358448,14.8928873 L40.5358448,19.5358448 L40.0961484,19.5358448 L40.0961484,14.8928873 Z" id="Shape" fill="#34BBDE"></path>
            <path d="M36,8 L42,8 L42,14 L36,14 L36,8 Z M36.5001514,8.50017662 L36.9733576,8.50017662 L36.9733576,13.5001262 L36.5001514,13.5001262 L36.5001514,8.50017662 Z M37.3902513,8.50017662 L37.882531,8.50017662 L37.882531,13.5001262 L37.3902513,13.5001262 L37.3902513,8.50017662 Z M38.299122,8.50017662 L38.7914018,8.50017662 L38.7914018,13.5001262 L38.299122,13.5001262 L38.299122,8.50017662 Z M39.2082955,8.50017662 L39.700878,8.50017662 L39.700878,13.5001262 L39.2082955,13.5001262 L39.2082955,8.50017662 Z M40.117469,8.50017662 L40.6100515,8.50017662 L40.6100515,13.5001262 L40.117469,13.5001262 L40.117469,8.50017662 Z M41.0266424,8.50017662 L41.5001514,8.50017662 L41.5001514,13.5001262 L41.0266424,13.5001262 L41.0266424,8.50017662 Z" id="Shape" fill="#23A3C2"></path>
            <path d="M36,1 L42,1 L42,7 L36,7 L36,1 Z M36.5001514,1.49979818 L36.9733576,1.49979818 L36.9733576,6.49959637 L36.5001514,6.49959637 L36.5001514,1.49949546 L36.5001514,1.49979818 Z M37.3902513,1.49979818 L37.882531,1.49979818 L37.882531,6.49959637 L37.3902513,6.49959637 L37.3902513,1.49949546 L37.3902513,1.49979818 Z M38.299122,1.49979818 L38.7914018,1.49979818 L38.7914018,6.49959637 L38.299122,6.49959637 L38.299122,1.49949546 L38.299122,1.49979818 Z M39.2082955,1.49979818 L39.700878,1.49979818 L39.700878,6.49959637 L39.2082955,6.49959637 L39.2082955,1.49949546 L39.2082955,1.49979818 Z M40.117469,1.49979818 L40.6100515,1.49979818 L40.6100515,6.49959637 L40.117469,6.49959637 L40.117469,1.49949546 L40.117469,1.49979818 Z M41.0266424,1.49979818 L41.5001514,1.49979818 L41.5001514,6.49959637 L41.0266424,6.49959637 L41.0266424,1.49949546 L41.0266424,1.49979818 Z" id="Shape" fill="#34BBDE"></path>
            <path d="M42,14 L48,14 L48,20 L42,20 L42,14 Z M42.4995459,14.5001514 L42.9733576,14.5001514 L42.9733576,19.5001514 L42.4998486,19.5001514 L42.4998486,14.5001514 L42.4995459,14.5001514 Z M43.3896458,14.5001514 L43.8822283,14.5001514 L43.8822283,19.5001514 L43.3899485,19.5001514 L43.3899485,14.5001514 L43.3896458,14.5001514 Z M44.299122,14.5001514 L44.7917045,14.5001514 L44.7917045,19.5001514 L44.299122,19.5001514 L44.299122,14.5001514 Z M45.2079927,14.5001514 L45.7005752,14.5001514 L45.7005752,19.5001514 L45.2079927,19.5001514 L45.2079927,14.5001514 Z M46.117469,14.5001514 L46.6097487,14.5001514 L46.6097487,19.5001514 L46.117469,19.5001514 L46.117469,14.5001514 Z M47.0263397,14.5001514 L47.4998486,14.5001514 L47.4998486,19.5001514 L47.0263397,19.5001514 L47.0263397,14.5001514 Z" id="Shape" fill="#23A3C2"></path>
            <path d="M27.4799915,29.000134 C28.0206758,28.9929212 28.5233938,29.2772754 28.7957826,29.7443896 C29.0681713,30.2115038 29.0680657,30.7890698 28.7955061,31.2560843 C28.5229465,31.7230988 28.0201245,32.0072691 27.4794429,31.9998585 C26.6590029,31.9886136 25.99985,31.3202423 26,30.4997256 C26.0001501,29.679209 26.6595475,29.0110789 27.4799915,29.000134" id="Shape" fill="#D3ECEC"></path>
            <path d="M28.1373822,29.7464716 C28.2828642,29.7464716 28.421654,29.7735255 28.5496782,29.8227404 C28.3680572,29.9270314 28.2796563,30.1387996 28.333979,30.3394573 C28.3883017,30.540115 28.5718616,30.6798464 28.7818674,30.6804037 C28.9579007,30.6804037 29.1106568,30.5839885 29.189799,30.4412365 C29.3821893,30.8996652 29.2486428,31.4286277 28.8609513,31.7437652 C28.4732597,32.0589028 27.9227511,32.0859788 27.5053668,31.8104379 C27.0879826,31.5348969 26.9020454,31.0216479 27.047511,30.5466021 C27.1929767,30.0715564 27.635578,29.74662 28.1373822,29.7464716 M0,26.0392364 L74,26.0392364 C72.3889324,25.6351561 68.9023108,25.0888994 69.4772557,23 C66.5472482,26.3535211 59.4817695,25.352818 57.6984512,23.6993697 C55.7129129,26.5480783 44.1529134,25.4650625 43.3466521,23.2457867 C40.8571642,26.1356516 33.1434177,26.1356516 30.6539298,23.2457867 C29.8470866,25.4650625 18.2873781,26.5480783 16.3015488,23.6990819 C14.5185214,25.352818 7.4533337,26.3535211 4.52332627,23.0002878 C5.09827112,25.0888994 1.61164957,25.6351561 0,26.0395242" id="Shape" fill="#364548"></path>
            <path d="M32,40.9667097 C28.081609,39.1540787 25.9311243,36.6897469 24.7344813,34 C23.2788308,34.4048444 21.5294458,34.663832 19.4964549,34.7749879 C18.7307191,34.8167419 17.925047,34.8381831 17.0800174,34.8381831 C16.1053393,34.8381831 15.078281,34.809971 14,34.754393 C17.5934018,38.2555215 22.0138909,40.9509108 30.1991029,41 C30.803357,41 31.4029808,40.9887151 32,40.9667097" id="Shape" fill="#BDD9D7"></path>
            <path d="M26.9996974,37 C26.4328578,36.1330682 25.8829658,35.0435227 25.4786425,34 C23.956377,34.4898864 22.1263294,34.8028409 20,34.9375 C21.4605275,35.8303409 23.5490272,36.6577273 27,37" id="Shape" fill="#D3ECEC"></path>
        </g>
    </g>
</svg>