<?xml version="1.0" encoding="UTF-8"?>
<svg width="256px" height="227px" viewBox="0 0 256 227" version="1.1" xmlns="http://www.w3.org/2000/svg" xmlns:xlink="http://www.w3.org/1999/xlink">
    <!-- Generator: Sketch 48.2 (47327) - http://www.bohemiancoding.com/sketch -->
    <title>google-cloud</title>
    <desc>Created with Sketch.</desc>
    <defs></defs>
    <g id="logos/google-cloud" stroke="none" stroke-width="1" fill="none" fill-rule="evenodd">
        <g id="google-cloud" fill-rule="nonzero">
            <polyline id="Shape" fill="#CAC9C2" points="81.558 190.482 36.618 112.647 81.558 34.811 171.434 34.811 216.373 112.647 171.433 190.482 81.559 190.482"></polyline>
            <path d="M127.997,148.176 C108.682,148.176 92.969,132.462 92.969,113.147 C92.969,93.833 108.682,78.12 127.997,78.12 C147.311,78.12 163.024,93.833 163.024,113.147 C163.024,132.462 147.311,148.176 127.997,148.176" id="Shape" fill="#FFFFFF"></path>
            <path d="M198.465,8.716 C195.71,3.946 188.95,0.044 183.443,0.044 L72.7,0.044 C67.192,0.044 60.432,3.947 57.679,8.716 L25.32,64.764 C25.066,68.385 25.73,72.167 27.327,74.931 L49.231,112.381 L88.332,44.83 L211.922,44.83 C214.846,44.83 218.118,45.937 220.962,47.681 L198.465,8.716" id="Shape" fill="#5072AA"></path>
            <path d="M26.727,62.311 L25.311,64.764 C25.057,68.385 25.721,72.167 27.317,74.931 L49.221,112.381 L60.875,92.25 L26.727,62.311" id="Shape" fill="#4D6796"></path>
            <path d="M75.554,28.837 C71.8234872,28.8325917 68.8004083,25.8095128 68.796,22.079 C68.8004083,18.3484872 71.8234872,15.3254083 75.554,15.321 C79.2851315,15.3243072 82.3091407,18.347869 82.313,22.079 C82.3085906,25.8099027 79.2849034,28.8331427 75.554,28.837 Z M186.296,22.079 C186.3245,24.3334403 185.1381,26.4289325 183.190309,27.5644602 C181.242518,28.6999879 178.834482,28.6999879 176.886691,27.5644602 C174.9389,26.4289325 173.7525,24.3334403 173.781,22.079 C173.824299,18.653929 176.613155,15.9001059 180.0385,15.9001059 C183.463845,15.9001059 186.252701,18.653929 186.296,22.079 Z" id="Shape" fill="#FFFFFF"></path>
            <g id="Group" transform="translate(138.000000, 44.000000)">
                <path d="M115.837,60.624 L82.962,3.68 C80.118,1.936 76.846,0.83 73.922,0.83 L29.354,0.83 L67.891,68.754 L6.879,176.548 C5.536,178.872 3.24,180.987 0.604,182.548 L45.443,182.548 C50.951,182.548 57.711,178.645 60.465,173.876 L115.837,77.969 C118.592,73.199 118.592,65.394 115.837,60.624" id="Shape" fill="#CC4232"></path>
                <path d="M84.446,6.235 L82.972,3.68 C80.13,1.936 76.858,0.83 73.934,0.83 L29.366,0.83 L40.966,21.277 L84.446,6.235" id="Shape" fill="#B23F33"></path>
                <path d="M42.038,165.982 C38.3070973,165.977591 35.2838573,162.953903 35.28,159.223 C35.2844083,155.492487 38.3074872,152.469408 42.038,152.465 C45.7689034,152.468857 48.7925906,155.492097 48.797,159.223 C48.7931417,162.954293 45.7692933,165.978142 42.038,165.982 M94.634,75.906 C90.9027067,75.9021417 87.8788583,72.8782933 87.875,69.147 C87.8794094,65.4160973 90.9030966,62.3928573 94.634,62.389 C98.3645128,62.3934083 101.387592,65.4164872 101.392,69.147 C101.388693,72.8781315 98.365131,75.9021407 94.634,75.906" id="Shape" fill="#FFFFFF"></path>
            </g>
            <g id="Group" transform="translate(0.000000, 64.000000)">
                <path d="M89.184,116.69 L27.327,10.93 C25.731,8.166 25.067,4.384 25.32,0.763 L2.307,40.623 C-0.447,45.393 -0.447,53.198 2.307,57.968 L57.679,153.875 C60.432,158.644 67.192,162.546 72.7,162.546 L138.604,162.546 C141.24,160.986 143.536,158.871 144.879,156.546 L167.438,116.689 L89.184,116.689" id="Shape" fill="#ECB02A"></path>
                <path d="M134.857,162.547 L138.69,162.547 C141.327,160.987 143.622,158.872 144.964,156.547 L167.524,116.69 L143.5,116.69 L134.857,162.547" id="Shape" fill="#C79732"></path>
                <path d="M75.554,145.982 C71.8230973,145.977591 68.7998573,142.953903 68.796,139.223 C68.8004083,135.492487 71.8234872,132.469408 75.554,132.465 C79.2851315,132.468307 82.3091407,135.491869 82.313,139.223 C82.3096919,142.954522 79.2855215,145.978692 75.554,145.982 M22.865,55.906 C19.1337067,55.9021417 16.1098583,52.8782933 16.106,49.147 C16.1104094,45.4160973 19.1340966,42.3928573 22.865,42.389 C26.5955128,42.3934083 29.6185917,45.4164872 29.623,49.147 C29.6191427,52.8779034 26.5959027,55.9015906 22.865,55.906" id="Shape" fill="#FFFFFF"></path>
            </g>
        </g>
    </g>
</svg>