<?xml version="1.0" encoding="UTF-8"?>
<svg width="256px" height="256px" viewBox="0 0 256 256" version="1.1" xmlns="http://www.w3.org/2000/svg" xmlns:xlink="http://www.w3.org/1999/xlink">
    <!-- Generator: Sketch 48.2 (47327) - http://www.bohemiancoding.com/sketch -->
    <title>invision</title>
    <desc>Created with Sketch.</desc>
    <defs></defs>
    <g id="logos/invision" stroke="none" stroke-width="1" fill="none" fill-rule="evenodd">
        <g id="invision" fill-rule="nonzero">
            <path d="M232.793,0 L23.207,0 C10.39,0 0,10.39 0,23.207 L0,232.793 C0,245.61 10.39,256 23.207,256 L232.793,256 C245.61,256 256,245.61 256,232.793 L256,23.207 C256,10.39 245.61,0 232.793,0" id="Shape" fill="#DC395F"></path>
            <path d="M85.555,80.545 C94.065,80.545 101.194,73.875 101.194,65.133 C101.194,56.397 94.065,49.728 85.555,49.728 C77.045,49.728 69.918,56.397 69.918,65.133 C69.918,73.874 77.045,80.545 85.555,80.545 M53.129,163.065 C52.21,166.975 51.749,171.197 51.749,174.641 C51.749,188.212 59.108,197.221 74.747,197.221 C87.717,197.221 98.232,189.519 105.803,177.082 L101.18,195.635 L126.935,195.635 L141.655,136.596 C145.335,121.648 152.464,113.889 163.274,113.889 C171.783,113.889 177.072,119.181 177.072,127.917 C177.072,130.448 176.842,133.205 175.922,136.196 L168.332,163.333 C167.182,167.243 166.724,171.155 166.724,174.832 C166.724,187.715 174.311,197.138 190.18,197.138 C203.749,197.138 214.557,188.403 220.537,167.474 L210.419,163.568 C205.359,177.589 200.989,180.124 197.539,180.124 C194.089,180.124 192.249,177.826 192.249,173.229 C192.249,171.159 192.711,168.862 193.399,166.096 L200.76,139.658 C202.599,133.45 203.29,127.945 203.29,122.887 C203.29,103.109 191.33,92.787 176.842,92.787 C163.274,92.787 149.474,105.026 142.576,117.907 L147.634,94.787 L108.31,94.787 L102.79,115.151 L121.189,115.151 L109.859,160.511 C100.962,180.289 84.619,180.61 82.568,180.151 C79.2,179.391 77.046,178.112 77.046,173.736 C77.046,171.211 77.506,167.584 78.656,163.211 L95.906,94.787 L52.21,94.787 L46.69,115.151 L64.857,115.151 L53.13,163.065" id="Shape" fill="#FFFFFF"></path>
        </g>
    </g>
</svg>