<?xml version="1.0" encoding="UTF-8"?>
<svg width="40px" height="55px" viewBox="0 0 40 55" version="1.1" xmlns="http://www.w3.org/2000/svg" xmlns:xlink="http://www.w3.org/1999/xlink">
    <!-- Generator: Sketch 48.2 (47327) - http://www.bohemiancoding.com/sketch -->
    <title>java-14</title>
    <desc>Created with Sketch.</desc>
    <defs></defs>
    <g id="logos/java" stroke="none" stroke-width="1" fill="none" fill-rule="evenodd">
        <g id="java-14" transform="translate(0.000000, -0.000000)" fill-rule="nonzero">
            <path d="M22.4909375,25.8617188 C25.0940625,28.8585938 21.8070312,31.5554688 21.8070312,31.5554688 C21.8070312,31.5554688 28.4165625,28.1434375 25.3810937,23.870625 C22.5460937,19.88625 20.371875,17.90625 32.1417187,11.0803125 C32.1417187,11.0803125 13.6670313,15.694375 22.4909375,25.8615625" id="Shape" fill="#E76F00"></path>
            <path d="M25.3810937,0.05796875 C25.3810937,0.05796875 30.9884375,5.66734375 20.0628125,14.2925 C11.3017187,21.2115625 18.065,25.1565625 20.0592187,29.6639063 C14.9451562,25.0498438 11.1920312,20.9879687 13.71,17.2076562 C17.4054687,11.658125 27.6434375,8.96765625 25.3810937,0.0578125" id="Shape" fill="#E76F00"></path>
            <path d="M12.8990625,41.7926563 C12.8990625,41.7926563 10.836875,42.991875 14.3667188,43.3976563 C18.643125,43.8854688 20.8285938,43.815625 25.54125,42.9235938 C25.54125,42.9235938 26.7803125,43.7004688 28.5104688,44.3734375 C17.94625,48.9010938 4.60125,44.1110938 12.8990625,41.7926563 M11.608125,35.8842188 C11.608125,35.8842188 9.29515625,37.5964063 12.8276563,37.9617188 C17.3957813,38.4329688 21.0032813,38.4715625 27.2457813,37.2695313 C27.2457813,37.2695313 28.1092188,38.1448438 29.466875,38.6235938 C16.6939063,42.3585938 2.4671875,38.918125 11.608125,35.8842188" id="Shape" fill="#5382A1"></path>
            <path d="M36.463125,46.1628125 C36.463125,46.1628125 37.9892187,47.4201562 34.7823437,48.3929687 C28.6845312,50.2403125 9.40234375,50.798125 4.04578125,48.4665625 C2.1203125,47.6290625 5.73125,46.4665625 6.86703125,46.2225 C8.0515625,45.965625 8.72859375,46.0135937 8.72859375,46.0135937 C6.5871875,44.505 -5.1125,48.975625 2.78578125,50.2557812 C24.3253125,53.7489062 42.0501562,48.6829688 36.463125,46.1628125 M13.890625,29.7625 C13.890625,29.7625 4.08265625,32.0921875 10.4175,32.9379687 C13.0921875,33.2960937 18.4242187,33.2151562 23.3909375,32.7989062 C27.45,32.4567187 31.5257812,31.7285937 31.5257812,31.7285937 C31.5257812,31.7285937 30.0945312,32.3415625 29.0590625,33.0485937 C19.0990625,35.668125 -0.141875,34.4495312 5.39734375,31.77 C10.081875,29.505625 13.8907812,29.7625 13.8907812,29.7625 M31.4853125,39.5971875 C41.6103125,34.3359375 36.9289062,29.28 33.6614062,29.96125 C32.8604687,30.1278125 32.5034375,30.2721875 32.5034375,30.2721875 C32.5034375,30.2721875 32.8007812,29.8065625 33.3685937,29.605 C39.8326562,27.3323437 44.8040625,36.3076562 31.281875,39.8623439 C31.281875,39.8625 31.4385937,39.7225 31.4853125,39.5971875" id="Shape" fill="#5382A1"></path>
            <path d="M14.885625,53.8539063 C24.6042188,54.4760938 39.528125,53.50875 39.8815625,48.9101563 C39.8815625,48.9101563 39.2021875,50.6535938 31.8496875,52.0379688 C23.5546875,53.5989062 13.3240625,53.4167188 7.25609375,52.41625 C7.25625,52.41625 8.49828125,53.444375 14.8857813,53.8539063" id="Shape" fill="#5382A1"></path>
        </g>
    </g>
</svg>