<?xml version="1.0" encoding="UTF-8"?>
<svg width="120px" height="27px" viewBox="0 0 120 27" version="1.1" xmlns="http://www.w3.org/2000/svg" xmlns:xlink="http://www.w3.org/1999/xlink">
    <!-- Generator: Sketch 48.2 (47327) - http://www.bohemiancoding.com/sketch -->
    <title>logos/kotlin copy</title>
    <desc>Created with Sketch.</desc>
    <defs>
        <linearGradient x1="-16.835945%" y1="91.9396677%" x2="76.2190511%" y2="-1.11603514%" id="linearGradient-1">
            <stop stop-color="#C757BC" offset="10.8%"></stop>
            <stop stop-color="#CD5CA9" offset="17.3%"></stop>
            <stop stop-color="#E8744F" offset="49.2%"></stop>
            <stop stop-color="#F88316" offset="71.6%"></stop>
            <stop stop-color="#FF8900" offset="82.3%"></stop>
        </linearGradient>
        <linearGradient x1="31.9147883%" y1="135.923273%" x2="77.2714743%" y2="45.6112698%" id="linearGradient-2">
            <stop stop-color="#00AFFF" offset="29.6%"></stop>
            <stop stop-color="#5282FF" offset="69.4%"></stop>
            <stop stop-color="#945DFF" offset="100%"></stop>
        </linearGradient>
        <linearGradient x1="-169.9%" y1="4077.81509%" x2="4331.9%" y2="7.13935991%" id="linearGradient-3">
            <stop stop-color="#00AFFF" offset="29.6%"></stop>
            <stop stop-color="#5282FF" offset="69.4%"></stop>
            <stop stop-color="#945DFF" offset="100%"></stop>
        </linearGradient>
    </defs>
    <g id="Evolve-1.0---Landing-Page" stroke="none" stroke-width="1" fill="none" fill-rule="evenodd" transform="translate(-1301.000000, -2408.000000)">
        <g id="technologies-we-use" transform="translate(-422.000000, 2194.000000)">
            <g id="list-groups" transform="translate(1397.000000, 122.000000)">
                <g id="Mobile-Development">
                    <g id="3" transform="translate(318.000000, 65.000000)">
                        <g id="logos/kotlin" transform="translate(8.000000, 27.000000)">
                            <g id="kotlin">
                                <g id="Group" transform="translate(33.244444, 0.000000)" fill="#000400" fill-rule="nonzero">
                                    <polygon id="Shape" points="0.0103111111 1.0917 5.54488889 1.0917 5.54488889 12.2265 15.7514667 1.0917 22.4360889 1.0917 12.1936 11.8989 22.9032889 26.5635 16.2545778 26.5635 8.456 15.71994 5.54488889 18.77634 5.54488889 26.56332 0.0103111111 26.56332"></polygon>
                                    <path d="M19.9619556,16.92036 L19.9619556,16.848 C19.9619556,11.24406 24.4184889,6.69546 30.4202667,6.69546 C36.3861333,6.69546 40.8067556,11.17134 40.8067556,16.7751 L40.8067556,16.848 C40.8067556,22.45176 36.3502222,27 30.3484444,27 C24.3825778,27 19.9619556,22.5243 19.9619556,16.92036 Z M35.4158222,16.92036 L35.4158222,16.848 C35.4158222,13.97304 33.3672889,11.4624 30.3484444,11.4624 C27.2216889,11.4624 25.3528889,13.90014 25.3528889,16.7751 L25.3528889,16.848 C25.3528889,19.7226 27.4014222,22.23324 30.4202667,22.23324 C33.5470222,22.23324 35.4158222,19.79532 35.4158222,16.92036 Z" id="Shape"></path>
                                    <path d="M42.3146667,21.03246 L42.3146667,11.78982 L40.0145778,11.78982 L40.0145778,7.0596 L42.3146667,7.0596 L42.3146667,2.07414 L47.7774222,2.07414 L47.7774222,7.05942 L52.3057778,7.05942 L52.3057778,11.78982 L47.7774222,11.78982 L47.7774222,20.12292 C47.7774222,21.39624 48.3164444,22.01508 49.5384889,22.01508 C50.4803225,22.0196901 51.4078352,21.781646 52.2337778,21.32334 L52.2337778,25.76286 C51.0837333,26.45424 49.7541333,26.89092 47.9212444,26.89092 C44.5790222,26.89092 42.3146667,25.54452 42.3146667,21.03246 Z M53.8737778,0 L59.3365333,0 L59.3365333,26.56332 L53.8737778,26.56332 L53.8737778,0 Z M61.3111111,0 L67.0611556,0 L67.0611556,4.91238 L61.3111111,4.91238 L61.3111111,0 Z M61.4551111,7.05942 L66.9176889,7.05942 L66.9176889,26.56332 L61.4549333,26.56332 L61.4551111,7.05942 Z M68.9957333,7.05942 L74.4584889,7.05942 L74.4584889,9.82476 C75.7164444,8.1873 77.3336889,6.69546 80.1008,6.69546 C84.2339556,6.69546 86.6417778,9.46098 86.6417778,13.93686 L86.6417778,26.56332 L81.1790222,26.56332 L81.1790222,15.6834 C81.1790222,13.0635 79.9569778,11.7171 77.8725333,11.7171 C75.7879111,11.7171 74.4584889,13.0635 74.4584889,15.6834 L74.4584889,26.56332 L68.9955556,26.56332 L68.9957333,7.05942 Z" id="Shape"></path>
                                </g>
                                <polygon id="Shape" fill="url(#linearGradient-1)" fill-rule="nonzero" points="12.6284444 1.07892 0 14.52528 0 26.54586 12.6101333 13.7556 25.1525333 1.07892"></polygon>
                                <polygon id="Shape" fill="url(#linearGradient-2)" fill-rule="nonzero" points="0 26.54586 12.6101333 13.7556 25.1525333 26.54586"></polygon>
                                <polygon id="Shape" fill="url(#linearGradient-3)" fill-rule="nonzero" points="0 1.07892 12.6284444 1.07892 0 14.52528"></polygon>
                            </g>
                        </g>
                    </g>
                </g>
            </g>
        </g>
    </g>
</svg>