<?xml version="1.0" encoding="UTF-8"?>
<svg width="113px" height="30px" viewBox="0 0 113 30" version="1.1" xmlns="http://www.w3.org/2000/svg" xmlns:xlink="http://www.w3.org/1999/xlink">
    <!-- Generator: Sketch 48.2 (47327) - http://www.bohemiancoding.com/sketch -->
    <title>leaflet-1</title>
    <desc>Created with Sketch.</desc>
    <defs>
        <linearGradient x1="-6.234%" y1="47.5328681%" x2="103.068%" y2="54.7865345%" id="linearGradient-1">
            <stop stop-color="#8AC443" offset="0%"></stop>
            <stop stop-color="#75B843" offset="100%"></stop>
        </linearGradient>
        <linearGradient x1="-10.801%" y1="47.2866977%" x2="110.996%" y2="52.9333225%" id="linearGradient-2">
            <stop stop-color="#75B843" offset="0%"></stop>
            <stop stop-color="#4B9744" offset="100%"></stop>
        </linearGradient>
        <linearGradient x1="108.51%" y1="46.4158424%" x2="-3.274%" y2="56.6073202%" id="linearGradient-3">
            <stop stop-color="#C1DB74" offset="0%"></stop>
            <stop stop-color="#ACD259" offset="100%"></stop>
        </linearGradient>
        <linearGradient x1="129.073%" y1="47.6049991%" x2="-25.413%" y2="52.4578969%" id="linearGradient-4">
            <stop stop-color="#ACD259" offset="0%"></stop>
            <stop stop-color="#8AC443" offset="100%"></stop>
        </linearGradient>
    </defs>
    <g id="logos/leaflet" stroke="none" stroke-width="1" fill="none" fill-rule="evenodd">
        <g id="leaflet-1" fill-rule="nonzero">
            <path d="M76.6985294,19.4779412 C76.2573529,19.7647059 75.7941176,19.9191176 75.3529412,19.9191176 C75.0220588,19.9191176 74.7573529,19.7867647 74.5367647,19.5220588 C74.3382353,19.2573529 74.2279412,18.9264706 74.2279412,18.5073529 C74.2279412,17.8897059 74.3823529,17.0735294 74.6911765,16.0367647 L75.5735294,13.0367647 L77.6470588,12.8823529 L78.0882353,10.8308824 L76.2132353,10.9411765 L77.6029412,6.30882353 L74.0294118,7.03676471 L72.7720588,11.2058824 L71.4926471,11.25 L71.0735294,13.3455882 L72.0882353,13.3014706 L71.5147059,15.3308824 C71.25,16.2352941 71.0514706,17.0294118 70.9411765,17.7352941 C69.8823529,18.8161765 69.0882353,19.5 68.5588235,19.8088235 C68.0294118,20.1176471 67.4558824,20.2720588 66.8823529,20.2720588 C65.3823529,20.2720588 64.4558824,19.4117647 64.1029412,17.6691176 C68.0073529,16.5220588 69.9705882,15.0220588 69.9705882,13.1911765 C69.9705882,12.5073529 69.7279412,11.9338235 69.2205882,11.5147059 C68.7132353,11.0955882 68.0514706,10.875 67.2352941,10.875 C65.6470588,10.875 64.1911765,11.6470588 62.8897059,13.1691176 C61.6985294,14.5588235 61.0588235,16.0808824 60.9485294,17.7794118 C59.8676471,18.8382353 59.0514706,19.5441176 58.5220588,19.875 C57.9705882,20.2279412 57.4632353,20.4044118 56.9779412,20.4044118 C56.5147059,20.4044118 56.1176471,20.1838235 55.8529412,19.7205882 C55.5661765,19.2573529 55.4338235,18.6617647 55.4338235,17.8897059 C55.4338235,17.5367647 55.4779412,16.8970588 55.5441176,15.9926471 C57.3308824,14.0735294 58.6323529,12.2426471 59.4705882,10.5441176 C60.3088235,8.84558824 60.7279412,7.08088235 60.7279412,5.27205882 C60.7279412,4.63235294 60.6397059,4.125 60.4852941,3.75 C60.3308824,3.375 60.1102941,3.17647059 59.8455882,3.17647059 C59.8014706,3.17647059 59.7132353,3.19852941 59.6029412,3.22058824 L56.2058824,4.41176471 C55.0588235,6.61764706 54.0661765,9.02205882 53.25,11.6470588 C52.5220588,14.0073529 52.125,16.0808824 52.0588235,17.8235294 C50.6470588,19.5220588 49.3455882,20.3602941 48.1544118,20.3602941 C47.2941176,20.3602941 46.6323529,19.8970588 46.1911765,18.9705882 L47.3161765,13.3897059 C49.1470588,11.6911765 50.3823529,10.2794118 51.0441176,9.13235294 C51.7058824,7.98529412 52.0367647,6.77205882 52.0367647,5.53676471 C52.0367647,4.80882353 51.9264706,4.23529412 51.7058824,3.79411765 C51.4852941,3.35294118 51.2205882,3.13235294 50.8897059,3.13235294 C50.8455882,3.13235294 50.5147059,3.22058824 49.8970588,3.375 C49.2794118,3.52941176 48.6838235,3.70588235 48.1323529,3.86029412 C47.5808824,4.03676471 47.25,4.21323529 47.0955882,4.41176471 C46.9632353,4.61029412 46.6102941,5.33823529 46.0588235,6.63970588 C45.5073529,7.94117647 45.0882353,9.11029412 44.8014706,10.1911765 C44.4926471,11.25 44.0955882,12.9926471 43.6323529,15.375 L41.4044118,17.6911765 L41.4044118,17.6691176 C40.6544118,18.4191176 40.0588235,18.9926471 39.6397059,19.3455882 C39.2205882,19.7205882 38.8455882,19.8970588 38.4926471,19.8970588 C37.9411765,19.8970588 37.6764706,19.5220588 37.6764706,18.75 C37.6764706,18.0220588 37.9852941,16.6764706 38.5808824,14.7132353 L39.75,10.8088235 L39,10.8088235 L36.2647059,12.3088235 C35.8235294,11.2941176 35.0514706,10.7647059 33.9264706,10.7647059 C33.0441176,10.7647059 32.0294118,11.1397059 30.8823529,11.8897059 C29.7352941,12.6397059 28.7867647,13.6102941 28.0588235,14.8235294 C27.4852941,15.7720588 27.1323529,16.7426471 27.0220588,17.7573529 C26.0073529,18.7720588 25.2352941,19.4558824 24.7058824,19.7647059 C24.1764706,20.0735294 23.6029412,20.2279412 23.0294118,20.2279412 C21.5294118,20.2279412 20.6029412,19.3676471 20.25,17.625 C24.1544118,16.4779412 26.1176471,14.9779412 26.1176471,13.1470588 C26.1176471,12.4632353 25.875,11.8897059 25.3676471,11.4705882 C24.8602941,11.0514706 24.1985294,10.8308824 23.3823529,10.8308824 C21.7941176,10.8308824 20.3382353,11.6029412 19.0367647,13.125 C17.8455882,14.5147059 17.2058824,16.0588235 17.0955882,17.7573529 C15.7941176,19.1911765 14.4264706,19.9191176 12.9926471,19.9191176 C12.2426471,19.9191176 11.3602941,19.7205882 10.3235294,19.3235294 C9.28676471,18.9264706 8.49264706,18.6617647 7.94117647,18.5073529 C7.38970588,18.375 6.72794118,18.3308824 5.97794118,18.375 C7.14705882,17.1617647 7.91911765,15.9264706 8.36029412,14.6691176 C8.77941176,13.4117647 9.08823529,11.9779412 9.26470588,10.3455882 C9.44117647,8.71323529 9.61764706,7.54411765 9.77205882,6.81617647 C9.92647059,6.08823529 10.2132353,5.47058824 10.6102941,4.94117647 C11.0073529,4.41176471 11.5808824,4.14705882 12.3088235,4.14705882 C12.9044118,4.14705882 13.3897059,4.36764706 13.7426471,4.80882353 C14.0955882,5.25 14.2720588,5.84558824 14.2720588,6.61764706 C14.2720588,7.61029412 14.0514706,8.47058824 13.5882353,9.19852941 C13.125,9.92647059 12.5955882,10.2794118 12,10.2794118 C11.625,10.2794118 11.3382353,10.1470588 11.0955882,9.86029412 C10.9852941,10.2352941 10.9411765,10.5441176 10.9411765,10.8308824 C10.9411765,11.3602941 11.0955882,11.7794118 11.4264706,12.0882353 C11.7573529,12.3970588 12.1764706,12.5514706 12.75,12.5514706 C13.8308824,12.5514706 14.7794118,12.0220588 15.5955882,10.9852941 C16.4117647,9.92647059 16.8308824,8.71323529 16.8308824,7.32352941 C16.8308824,6.11029412 16.4338235,5.11764706 15.6397059,4.34558824 C14.8455882,3.57352941 13.8529412,3.17647059 12.6176471,3.17647059 C10.8308824,3.17647059 9.17647059,4.05882353 7.65441176,5.84558824 C6.13235294,7.61029412 5.29411765,10.0808824 5.13970588,13.2132353 C5.05147059,14.7352941 4.94117647,15.8161765 4.80882353,16.4779412 C4.67647059,17.1397059 4.34558824,17.8235294 3.83823529,18.5073529 C2.625,18.7058824 1.69852941,19.0588235 1.03676471,19.5661765 C0.375,20.0735294 0.0441176471,20.6691176 0.0441176471,21.3529412 C0.0441176471,21.6838235 0.154411765,21.9485294 0.375,22.1691176 C0.595588235,22.3897059 0.882352941,22.5 1.21323529,22.5 C2.18382353,22.5 3.26470588,21.8382353 4.47794118,20.5367647 C5.11764706,20.7132353 5.86764706,21 6.72794118,21.3970588 C7.56617647,21.7941176 8.29411765,22.0588235 8.88970588,22.2352941 C9.48529412,22.3897059 10.1029412,22.4779412 10.7426471,22.4779412 C12.9485294,22.4779412 15.0882353,21.4191176 17.2058824,19.2794118 C17.3602941,20.0955882 17.6911765,20.8014706 18.2426471,21.3529412 C18.9926471,22.125 19.9632353,22.5220588 21.1764706,22.5220588 C22.2573529,22.5220588 23.25,22.2573529 24.1544118,21.7279412 C25.0147059,21.2205882 25.9852941,20.4264706 27.0661765,19.3897059 C27.1544118,20.1617647 27.4191176,20.8455882 27.8382353,21.4191176 C28.3897059,22.1470588 29.0514706,22.5220588 29.8235294,22.5220588 C30.6176471,22.5220588 31.3897059,22.2132353 32.1617647,21.6176471 C32.9117647,21.0220588 33.7279412,20.0735294 34.6323529,18.7941176 C34.5441176,21.2647059 35.2058824,22.5220588 36.6176471,22.5220588 C37.1691176,22.5220588 37.7647059,22.3235294 38.3823529,21.9044118 C39,21.4852941 40.0147059,20.625 41.4264706,19.2573529 L42.3308824,18.2647059 C42.5735294,18.9485294 42.75,19.3676471 42.8602941,19.5441176 C42.1544118,23.4264706 41.6691176,26.5808824 41.3823529,29.0294118 C42.6838235,28.7647059 43.7867647,28.5882353 44.7132353,28.4558824 C45,26.1838235 45.3308824,24.0882353 45.7058824,22.125 C46.3014706,22.3897059 46.7647059,22.5 47.0955882,22.5 C47.8014706,22.5 48.6176471,22.2132353 49.5220588,21.6617647 C50.4044118,21.1102941 51.2867647,20.3382353 52.1911765,19.3455882 C52.3014706,20.1617647 52.5661765,20.8455882 53.0073529,21.3970588 C53.5808824,22.125 54.3529412,22.5 55.3014706,22.5 C56.1176471,22.5 57,22.2352941 57.9044118,21.7058824 C58.8088235,21.1764706 59.8676471,20.3602941 61.0808824,19.2352941 C61.2352941,20.0735294 61.5661765,20.7573529 62.1176471,21.3308824 C62.8676471,22.1029412 63.8382353,22.5 65.0514706,22.5 C66.1323529,22.5 67.125,22.2352941 68.0294118,21.7058824 C68.8897059,21.1985294 69.8602941,20.4044118 70.9411765,19.3676471 C70.9852941,20.25 71.2279412,20.9779412 71.6470588,21.5294118 C72.1323529,22.1691176 72.75,22.5 73.5,22.5 C74.2279412,22.5 75.0220588,22.2352941 75.8382353,21.7058824 C76.6544118,21.1764706 77.625,20.3602941 78.75,19.2352941 L78.75,17.6911765 C77.8014706,18.5735294 77.1397059,19.1911765 76.6985294,19.4779412 Z M57.75,7.10294118 C58.3676471,5.47058824 58.8529412,4.65441176 59.1838235,4.65441176 C59.3382353,4.65441176 59.4485294,4.76470588 59.5588235,4.96323529 C59.6470588,5.16176471 59.7132353,5.42647059 59.7132353,5.75735294 C59.7132353,6.88235294 59.3602941,8.22794118 58.6544118,9.77205882 C57.9485294,11.3382353 57.0441176,12.7279412 55.8970588,13.9852941 C56.4926471,11.0294118 57.1102941,8.73529412 57.75,7.10294118 Z M49.125,6.04411765 C49.5220588,5.02941176 49.9191176,4.5 50.3161765,4.5 C50.5147059,4.5 50.6911765,4.61029412 50.8235294,4.85294118 C50.9558824,5.09558824 51.0220588,5.40441176 51.0220588,5.77941176 C51.0220588,6.66176471 50.7352941,7.63235294 50.1397059,8.66911765 C49.5441176,9.70588235 48.7279412,10.6985294 47.6911765,11.6029412 C48.2426471,8.91176471 48.7279412,7.05882353 49.125,6.04411765 Z M22.6102941,11.9117647 C23.2279412,11.9117647 23.5367647,12.3308824 23.5367647,13.1911765 C23.5367647,14.9117647 22.3897059,16.1029412 20.1176471,16.7426471 C20.1176471,15.3088235 20.3823529,14.1397059 20.9117647,13.2573529 C21.4411765,12.375 22.0147059,11.9117647 22.6102941,11.9117647 Z M34.125,17.6691176 C33.3308824,19.1911765 32.4926471,19.9411765 31.6102941,19.9411765 C31.2352941,19.9411765 30.9485294,19.7867647 30.7058824,19.5 C30.4632353,19.2132353 30.3529412,18.8161765 30.3529412,18.3308824 C30.3529412,17.0514706 30.75,15.6617647 31.5441176,14.1617647 C32.3382353,12.6397059 33.1764706,11.8897059 34.0808824,11.8897059 C34.4558824,11.8897059 34.7426471,12.0220588 34.9852941,12.3088235 C35.2058824,12.5955882 35.3161765,12.9705882 35.3161765,13.4779412 C35.2941176,14.7573529 34.8970588,16.1470588 34.125,17.6691176 Z M66.4632353,11.9117647 C67.0808824,11.9117647 67.3897059,12.3308824 67.3897059,13.1911765 C67.3897059,14.9117647 66.2426471,16.1029412 63.9705882,16.7426471 C63.9705882,15.3088235 64.2352941,14.1397059 64.7647059,13.2573529 C65.3161765,12.3529412 65.8897059,11.9117647 66.4632353,11.9117647 Z" id="Shape" fill="#70706F"></path>
            <path d="M83.25,11.9779412 C83.5367647,12.3088235 88.9852941,14.1176471 90.8602941,16.3235294 C92.7573529,18.5294118 93.5735294,20.4926471 93.3088235,22.3897059 C93.0441176,24.2867647 91.875,24.2426471 91.3897059,24.9485294 C90.8823529,25.6323529 90.1764706,26.4926471 88.8529412,26.4044118 C87.0882353,26.2941176 85.2794118,25.4117647 83.9779412,22.3676471 C82.6764706,19.3235294 82.7647059,16.4558824 82.875,14.8676471 C82.9632353,13.2573529 83.25,11.9779412 83.25,11.9779412 Z" id="Shape" fill="url(#linearGradient-1)"></path>
            <polygon id="Shape" fill="url(#linearGradient-2)" points="83.4044118 12.4852941 91.5661765 24.6617647 91.1911765 25.0808824 83.4044118 12.4852941"></polygon>
            <path d="M52.1470588,29.4044118 L52.2132353,28.875 C54.3970588,27.7058824 57.0882353,27.2647059 59.2941176,26.1397059 C59.9558824,26.4264706 60.2426471,26.0073529 60.9485294,26.0514706 C61.2132353,26.2720588 60.6176471,26.5808824 61.3235294,26.5367647 C62.8897059,26.7352941 64.4338235,26.4485294 65.9779412,26.3161765 C67.6102941,26.1838235 69.2205882,26.3382353 70.8308824,26.2279412 C71.3382353,26.2058824 72.1323529,25.5 72.75,25.8529412 C73.0367647,26.3602941 71.8235294,26.4044118 72.1544118,26.9779412 C75.3529412,27.7279412 83.3602941,30.9044118 84.7279412,27.4411765 C84.75,27.6617647 84.4852941,28.0588235 84.8602941,28.0147059 C87.5514706,26.8014706 92.1397059,24.1985294 92.9558824,23.5147059 C93.8382353,22.7647059 95.0294118,22.7867647 96.1764706,22.5220588 C98.2720588,22.0367647 100.5,21.5514706 102.308824,20.4926471 C103.433824,21.2647059 105.772059,21.6617647 107.007353,21.375 C108.308824,21.0882353 110.338235,18.9264706 111.419118,18.1544118 C111.838235,17.8455882 112.477941,17.2720588 112.919118,17.6029412 C112.610294,17.8235294 112.963235,18.4411765 112.588235,18.3308824 C112.389706,17.9558824 111.992647,18.3970588 111.705882,18.3088235 C110.625,19.2132353 109.477941,20.0514706 108.375,20.9117647 C107.845588,21.2205882 108.882353,21.5514706 108.264706,21.6617647 C105.397059,22.2352941 101.007353,20.8014706 99.1985294,22.7867647 C96.3308824,23.7794118 93.6176471,24.0220588 90.7941176,25.5441176 C89.1617647,26.4264706 87.1764706,28.0147059 85.4779412,28.8529412 C85.1911765,28.9852941 84.7720588,29.0514706 84.4411765,29.25 C84.0220588,29.4926471 83.9338235,29.8235294 83.5808824,29.8897059 C82.7205882,30.0661765 80.9338235,29.625 79.7867647,29.4705882 C76.0367647,28.9191176 72.0220588,27.3970588 68.4705882,27.1985294 C67.0588235,27.1323529 65.4044118,27.3529412 63.8161765,27.4191176 C60.4411765,27.5735294 58.3455882,27.6617647 55.6323529,28.5661765 C54.5735294,28.9411765 52.8529412,29.9338235 52.1470588,29.4044118 Z" id="Shape" fill="#3D3D3C"></path>
            <path d="M104.25,0 C103.875,0.617647059 95.2279412,5.07352941 92.6470588,9.24264706 C90.0441176,13.4338235 89.3161765,16.7205882 90.2647059,19.8088235 C91.2132353,22.8970588 93,22.7647059 94.0147059,23.7794118 C95.0294118,24.7941176 96.4191176,26.0294118 98.6470588,25.5441176 C101.558824,24.8823529 104.360294,22.9411765 105.75,17.5147059 C107.139706,12.0882353 106.235294,7.32352941 105.639706,4.69852941 C105.044118,2.07352941 104.25,0 104.25,0 Z" id="Shape" fill="url(#linearGradient-3)"></path>
            <polygon id="Shape" fill="url(#linearGradient-4)" points="104.095588 0.926470588 93.6176471 23.3823529 94.2352941 24"></polygon>
        </g>
    </g>
</svg>