<?xml version="1.0" encoding="UTF-8"?>
<svg width="89px" height="61px" viewBox="0 0 89 61" version="1.1" xmlns="http://www.w3.org/2000/svg" xmlns:xlink="http://www.w3.org/1999/xlink">
    <!-- Generator: Sketch 48.2 (47327) - http://www.bohemiancoding.com/sketch -->
    <title>mysql</title>
    <desc>Created with Sketch.</desc>
    <defs></defs>
    <g id="logos/mysql" stroke="none" stroke-width="1" fill="none" fill-rule="evenodd">
        <g id="mysql">
            <path d="M61.0245595,6 C60.6006407,6 60.3016551,6.04273314 60,6.10460717 L60,6.14645003 L60.0485852,6.14645003 C60.2504004,6.47896728 60.6006407,6.70999332 60.8483716,7.00111284 C61.049653,7.33452037 61.2247731,7.66703761 61.4244527,8 C61.4490123,7.97996884 61.4730379,7.95815713 61.4730379,7.95815713 C61.8254138,7.75072335 62,7.41731582 62,6.91653684 C61.8489055,6.7700868 61.8254138,6.62541732 61.6994127,6.47896728 C61.5499199,6.27108836 61.2247731,6.16692633 61.0245595,6" id="Fill-3" fill="#5B7F93"></path>
            <path d="M21,56 L17.6294371,56 C17.5109164,50.0674566 17.1823853,44.488925 16.6454032,39.2633209 L16.6157731,39.2633209 L11.4845537,56 L8.91816427,56 L3.81813456,39.2633209 L3.78798455,39.2633209 C3.41006981,44.2818309 3.17198871,49.8603625 3.07270162,56 L0,56 C0.198574187,48.5332249 0.695529482,41.533767 1.49086588,35 L5.66768157,35 L10.53015,50.4301425 L10.5603,50.4301425 L15.4523986,35 L19.4488341,35 C20.324224,42.652184 20.8409327,49.6538104 21,56" id="Fill-4" fill="#196D80"></path>
            <path d="M36,40 C34.6530084,47.7662321 32.876408,53.4099651 30.6707092,56.930657 C28.9522744,59.6435523 27.0700577,61 25.0199772,61 C24.4735272,61 23.8000314,60.8248871 23,60.4773719 L23,58.605344 C23.3908317,58.6660643 23.8490129,58.698593 24.3765846,58.698593 C25.3327446,58.698593 26.103183,58.4177617 26.6899407,57.8571834 C27.3920091,57.1740803 27.7430433,56.4064025 27.7430433,55.5557764 C27.7430433,54.9745966 27.4690529,53.782419 26.9236234,51.9787014 L23.2928686,40 L26.5429962,40 L29.1482005,48.9589519 C29.7339378,50.9930812 29.9778249,52.4129599 29.8803721,53.2223829 C31.305428,49.1779786 32.3008752,44.7703369 32.867224,40 L36,40" id="Fill-5" fill="#196D80"></path>
            <polyline id="Fill-6" fill="#E6892E" points="83 56 73 56 73 35 76.3650035 35 76.3650035 53.4167441 83 53.4167441 83 56"></polyline>
            <path d="M57.7313227,50.9844167 C56.8968527,49.6256418 56.4788199,47.4451445 56.4788199,44.4386197 C56.4788199,39.1897128 58.0562821,36.5636449 61.2096108,36.5636449 C62.8583406,36.5636449 64.0682956,37.1916411 64.8421349,38.4465571 C65.6755412,39.8058701 66.093574,41.9675329 66.093574,44.9320837 C66.093574,50.2229646 64.5161119,52.8694814 61.3627831,52.8694814 C59.7145852,52.8694814 58.5040984,52.2420234 57.7313227,50.9844167 M70,55.6569878 L66.2132399,53.7676181 C66.5504317,53.4877912 66.8706044,53.185901 67.1604618,52.8366555 C68.7682393,50.9241463 69.5729258,48.0935895 69.5729258,44.3460616 C69.5729258,37.4499428 66.8971968,34 61.5462708,34 C58.9215993,34 56.8761106,34.8744591 55.4114003,36.6260678 C53.803091,38.5407296 53,41.3605238 53,45.0870647 C53,48.7511828 53.7116131,51.4391354 55.1359029,53.1466176 C56.4383994,54.6899706 58.4019835,55.4627234 61.0271868,55.4627234 C62.0073833,55.4627234 62.9067388,55.3405682 63.7241897,55.0962578 L68.6554874,58 L70,55.6569878" id="Fill-7" fill="#E6892E"></path>
            <path d="M52,49.0606594 C52,50.7955637 51.3549435,52.2199281 50.0691059,53.3342806 C48.7821994,54.44388 47.0533196,55 44.8883453,55 C42.8633916,55 40.9009661,54.3599075 39,53.0897568 L39.8892909,51.3326711 C41.5251799,52.1407087 43.0055498,52.5441994 44.3346763,52.5441994 C45.5815005,52.5441994 46.557369,52.2701003 47.2633505,51.7282398 C47.9677287,51.1826824 48.3899281,50.4216483 48.3899281,49.4562282 C48.3899281,48.2415311 47.532703,47.2032291 45.9598767,46.3323441 C44.5078314,45.5449036 41.6058787,43.9008375 41.6058787,43.9008375 C40.0335868,42.7674723 39.2453032,41.5511908 39.2453032,39.5474688 C39.2453032,37.8901994 39.8331757,36.5508639 41.0073176,35.5315746 C42.1841316,34.5107009 43.702446,34 45.5617266,34 C47.4835355,34 49.2311202,34.507004 50.8050154,35.516787 L50.0055087,37.2722883 C48.6587461,36.7082464 47.3306886,36.4251691 46.0213361,36.4251691 C44.95889,36.4251691 44.1401439,36.6770867 43.5693731,37.1840907 C42.9953957,37.6868697 42.6405344,38.3338279 42.6405344,39.1223248 C42.6405344,40.3338531 43.5164645,41.3848301 45.1336485,42.2726152 C46.6038643,43.060584 49.5768962,44.7363378 49.5768962,44.7363378 C51.1940802,45.8675905 52,47.0738375 52,49.0606594" id="Fill-8" fill="#E6892E"></path>
            <path d="M86.1598369,27.8444707 C84.2001296,27.7943747 82.6824812,27.993693 81.4096654,28.5426177 C81.0424165,28.6923729 80.4554459,28.6923729 80.4052239,29.1661536 C80.6024502,29.3654719 80.6259918,29.6894974 80.7986301,29.9650256 C81.0915923,30.4638543 81.6047991,31.1358874 82.0709228,31.4865597 C82.5851759,31.8857292 83.0994291,32.2832999 83.6387932,32.6323734 C84.5930127,33.233526 85.6706948,33.5810006 86.5998032,34.1800214 C87.1402137,34.5290949 87.6769622,34.9772946 88.2173726,35.352482 C88.4857469,35.5523332 88.6557695,35.8768916 89,36 L89,35.9248559 C88.8273616,35.7010226 88.7792321,35.3764641 88.6086863,35.1259839 C88.3643768,34.8781684 88.1190211,34.6522033 87.8736653,34.4038548 C87.1632322,33.4312454 86.2806838,32.5838762 85.3280337,31.8857292 C84.5438369,31.3352057 82.8289622,30.5869626 82.5119354,29.667114 C82.5119354,29.667114 82.4863012,29.6404672 82.4622365,29.6159521 C83.0010775,29.5653231 83.6387932,29.3654719 84.1525232,29.2141179 C84.9838033,28.9902845 85.742889,29.0409135 86.5998032,28.8170801 C86.9921632,28.7163551 87.384,28.591115 87.7774063,28.4685395 L87.7774063,28.2425744 C87.3343011,27.7943747 87.0172742,27.194821 86.5521969,26.7711364 C85.3044921,25.6738198 83.9317554,24.6026172 82.5119354,23.7030202 C81.7518033,23.2041915 80.7724728,22.8812319 79.9642113,22.4559485 C79.6717723,22.3061933 79.1826302,22.2321151 79.0105149,21.9816349 C78.5695023,21.4327101 78.3236234,20.710581 78.0060734,20.0609313 C77.2966865,18.6907512 76.609795,17.16975 75.9987597,15.7206953 C75.5582703,14.7486189 75.2888497,13.7765425 74.7500087,12.8780113 C72.2268725,8.63690164 69.4855841,6.06921295 65.2742536,3.54948856 C64.3681637,3.02454598 63.2910047,2.80071259 62.1411284,2.52625023 C61.5280006,2.50013633 60.9164421,2.4516391 60.3043606,2.42712401 C59.9120006,2.25178786 59.5196406,1.77747426 59.1775027,1.55310794 C57.7812243,0.655642655 54.1835449,-1.28957605 53.1545155,1.27917851 C52.4932581,2.90143762 54.133846,4.49704989 54.6972749,5.32043698 C55.1131765,5.89334386 55.6525407,6.54299361 55.9449796,7.19051162 C56.1165717,7.61472918 56.1657475,8.06452769 56.3378627,8.5127274 C56.7291764,9.61004392 57.0959022,10.8326006 57.6112017,11.8558389 C57.8795759,12.3797156 58.1730612,12.9291733 58.5157222,13.4008222 C58.7134716,13.6768834 59.0550864,13.7999917 59.1288501,14.2503232 C58.7872353,14.7486189 58.7605548,15.4968619 58.564898,16.1209307 C57.6839191,18.9396326 58.026057,22.4314334 59.2753311,24.5013593 C59.6661217,25.1248951 60.5978458,26.4972069 61.8465969,25.9722644 C62.9483437,25.5240647 62.7035111,24.1021897 63.0215842,22.8556509 C63.0948247,22.5545417 63.045649,22.3568223 63.19213,22.157504 L63.19213,22.2081329 C63.5347911,22.905214 63.8784984,23.5772471 64.1965716,24.2775259 C64.9567036,25.4984837 66.2776489,26.7711364 67.380442,27.6185056 C67.9663662,28.0688371 68.4319667,28.8410622 69.1664646,29.1160575 L69.1664646,29.0409135 L69.1183351,29.0409135 C68.9708078,28.8170801 68.7510862,28.7163551 68.5549062,28.5426177 C68.1144167,28.0933521 67.6257978,27.5444274 67.2815673,27.0461317 C66.2535841,25.6498377 65.3464479,24.1021897 64.5402789,22.5060445 C64.1473958,21.7311547 63.8052579,20.8837854 63.4866616,20.1110273 C63.3401805,19.8131157 63.3401805,19.3627843 63.0948247,19.213562 C62.7265295,19.7619538 62.1892579,20.2362674 61.9203605,20.9077676 C61.45476,21.9816349 61.4061074,23.3033177 61.233469,24.6756295 C61.1361637,24.7017434 61.1853395,24.6756295 61.1361637,24.7251926 C60.3535363,24.5258743 60.0841158,23.7030202 59.7895843,23.006472 C59.0550864,21.2333918 58.9316238,18.3901749 59.5693395,16.3447641 C59.7398853,15.8219533 60.4764758,14.175712 60.1814211,13.6768834 C60.0333706,13.2009709 59.5442285,12.9291733 59.2753311,12.5534529 C58.9577811,12.0796723 58.6130275,11.4822503 58.3948753,10.9573077 C57.8068585,9.56101375 57.5112807,8.01389871 56.8767038,6.61760474 C56.5826954,5.96795499 56.0673959,5.29432309 55.6525407,4.69690112 C55.186417,4.02326922 54.672687,3.54948856 54.3049149,2.75221536 C54.1835449,2.47722006 54.0119528,2.02795448 54.2070865,1.72950997 C54.255216,1.52965873 54.3546138,1.45451466 54.5507938,1.40388568 C54.8672975,1.12995626 55.7744338,1.47849681 56.0919838,1.62825201 C56.998597,2.00130765 57.7576827,2.35251289 58.5157222,2.87532372 C58.8589064,3.125271 59.2261553,3.59905167 59.6661217,3.72482471 L60.1814211,3.72482471 C60.9645716,3.89802912 61.8465969,3.77332194 62.5816179,3.99875414 C63.8784984,4.42243876 65.0534858,5.04597462 66.1071031,5.71960652 C69.3134688,7.79006533 71.9579751,10.7340073 73.7445209,14.2503232 C74.0390524,14.82323 74.162515,15.3476397 74.4314124,15.9450617 C74.9456655,17.16975 75.5828582,18.4168217 76.096065,19.6127315 C76.609795,20.7851921 77.1005066,21.9816349 77.8360507,22.955843 C78.2022534,23.4786539 79.6717723,23.7531162 80.3330296,24.0275786 C80.8216486,24.251412 81.5817807,24.4512632 82.0227933,24.7251926 C82.8551196,25.2485364 83.6858764,25.8480901 84.4705964,26.4225958 C84.8613869,26.7215733 86.0860732,27.3445762 86.1598369,27.8444707" id="Fill-9" fill="#196D80"></path>
            <path d="M84.6857255,56 L85.1901955,56 L85.1901955,53.5088496 L85.8503782,53.5088496 L85.8503782,53 L84,53 L84,53.5088496 L84.6857255,53.5088496 L84.6857255,56 Z M88.5245112,56 L89,56 L89,53 L88.284802,53 L87.7027213,55.0448799 L87.0690638,53 L86.3798998,53 L86.3798998,56 L86.8298458,56 L86.8298458,53.7168142 L86.8553885,53.7168142 L87.5190097,56 L87.8618725,56 L88.5245112,53.7168142 L88.5245112,56 Z" id="Fill-10" fill="#E6892E"></path>
        </g>
    </g>
</svg>