<?xml version="1.0" encoding="UTF-8"?>
<svg width="158px" height="45px" viewBox="0 0 158 45" version="1.1" xmlns="http://www.w3.org/2000/svg" xmlns:xlink="http://www.w3.org/1999/xlink">
    <!-- Generator: Sketch 48.2 (47327) - http://www.bohemiancoding.com/sketch -->
    <title>nodejs</title>
    <desc>Created with Sketch.</desc>
    <defs></defs>
    <g id="logos/nodejs" stroke="none" stroke-width="1" fill="none" fill-rule="evenodd">
        <g id="nodejs" fill-rule="nonzero">
            <g id="Group" transform="translate(133.000000, 16.000000)" fill="#83CD29">
                <path d="M12.5152439,0.190526882 C12.1359756,0.190526882 11.7670732,0.270666667 11.4405488,0.459634409 L1.10884146,6.56210753 C0.440243902,6.95625806 0.0338414634,7.70027957 0.0338414634,8.49201075 L0.0338414634,20.6748172 C0.0338414634,21.4659247 0.440243902,22.2090108 1.10884146,22.6040968 L3.8070122,24.1972258 C5.1179878,24.8579892 5.60121951,24.8476989 6.19786585,24.8476989 C8.13871951,24.8476989 9.24695122,23.6431075 9.24695122,21.5498065 L9.24695122,9.52384946 C9.24695122,9.35390323 9.10304878,9.23229032 8.93993902,9.23229032 L7.64573171,9.23229032 C7.47987805,9.23229032 7.33871951,9.35390323 7.33871951,9.52384946 L7.33871951,21.5498065 C7.33871951,22.4774946 6.39359756,23.4107957 4.86006098,22.6265484 L2.05213415,20.9439247 C1.9527439,20.8887312 1.87652439,20.791129 1.87652439,20.6748172 L1.87652439,8.49169892 C1.87652439,8.37632258 1.95182927,8.25876344 2.05213415,8.20013978 L12.3618902,2.12043011 C12.456726,2.0637521 12.5740667,2.0637521 12.6689024,2.12043011 L22.9789634,8.20045161 C23.0771341,8.26094624 23.1545732,8.37289247 23.1545732,8.49232258 L23.1545732,20.675129 C23.1545732,20.7914409 23.0972561,20.9105591 23.0009146,20.9666882 L12.6689024,27.0467097 C12.5804878,27.1006559 12.4585366,27.1006559 12.3618902,27.0467097 L9.70762195,25.4314409 C9.62556573,25.3859172 9.52656842,25.3859172 9.4445122,25.4314409 C8.71189024,25.8561505 8.57408537,25.9054194 7.88689024,26.1492688 C7.71768293,26.2097634 7.46067073,26.3036237 7.97469512,26.5983011 L11.4405488,28.6844301 C11.7673329,28.8772614 12.1382821,28.9779771 12.5155488,28.9763011 C12.8927704,28.9787068 13.2637791,28.8780541 13.5902439,28.6847419 L23.9222561,22.6044086 C24.5908537,22.206828 24.9969512,21.4662366 24.9969512,20.675129 L24.9969512,8.49201075 C24.9969512,7.7005914 24.5908537,6.9578172 23.9222561,6.56273118 L13.5902439,0.460258065 C13.2664634,0.270978495 12.895122,0.19083871 12.5155488,0.19083871 L12.5152439,0.190526882 Z" id="Shape"></path>
                <path d="M15.2792683,8.89582796 C12.3371951,8.89582796 10.585061,10.1765054 10.585061,12.3062903 C10.585061,14.6163118 12.3240854,15.2511935 15.1478659,15.536828 C18.5259146,15.8751613 18.7890244,16.3825054 18.7890244,17.0626022 C18.7890244,18.2422473 17.8695122,18.7452258 15.6963415,18.7452258 C12.9655488,18.7452258 12.3655488,18.0479785 12.1646341,16.6587849 C12.1408537,16.5097312 12.0283537,16.3893656 11.8792683,16.3893656 L10.5411585,16.3893656 C10.3765244,16.3893656 10.2341463,16.5346774 10.2341463,16.7036882 C10.2341463,18.482043 11.179878,20.5850108 15.6963415,20.5850108 C18.9655488,20.5850108 20.8512195,19.2725269 20.8512195,16.9727957 C20.8512195,14.6933333 19.3280488,14.0812151 16.1567073,13.6524516 C12.952439,13.2186989 12.6469512,13.0063441 12.6469512,12.2389355 C12.6469512,11.6053011 12.9060976,10.7577527 15.2792683,10.7577527 C17.3993902,10.7577527 18.1829268,11.2254946 18.5039634,12.6876559 C18.5320122,12.8248602 18.6503049,12.9343118 18.7890244,12.9343118 L20.127439,12.9343118 C20.2097561,12.9343118 20.2896341,12.8825484 20.3466463,12.8220538 C20.4027439,12.7575054 20.442378,12.6848495 20.4344512,12.5978495 C20.2271341,10.0801505 18.5856707,8.89582796 15.2792683,8.89582796 Z" id="Shape"></path>
            </g>
            <path d="M83.4495353,0.000144833187 C83.3328705,0.000223169554 83.2182375,0.03106136 83.1169247,0.0896226347 C82.9121071,0.210947111 82.7857712,0.432715647 82.7846221,0.672943076 L82.7846221,17.8333513 C82.7846221,18.0017067 82.7073209,18.1526031 82.5631897,18.2370926 C82.4193832,18.3218919 82.2416494,18.3218919 82.0978429,18.2370926 L79.3279359,16.6221274 C78.916701,16.3812529 78.4096524,16.3812529 77.9984175,16.6221274 L66.9412717,23.0822999 C66.5279722,23.3239212 66.2766665,23.7881457 66.2766665,24.2713882 L66.2766665,37.1920451 C66.2766665,37.674664 66.5282802,38.116753 66.9412717,38.3583742 L77.9984175,44.8188585 C78.4094805,45.0603805 78.9168729,45.0603805 79.3279359,44.8188585 L90.3850817,38.3583742 C90.7971413,38.1182842 91.050798,37.6733431 91.0499949,37.1920451 L91.0499949,4.98003655 C91.0493833,4.48737036 90.7870257,4.03312507 90.3632157,3.79094828 L83.7818379,0.067175242 C83.678667,0.00887437479 83.5641011,-0.00141401353 83.4495353,0.000144833187 Z M12.3201477,16.1285965 C12.1094943,16.1370143 11.9111599,16.1744266 11.7220646,16.2854165 L0.664610803,22.7459008 C0.252294724,22.9856901 -0.00137372126,23.430858 5.59649918e-06,23.9122299 L0.0221796349,41.252529 C0.0221796349,41.4935267 0.145060764,41.7176889 0.354482238,41.8355377 C0.559074779,41.9599816 0.814802875,41.9599816 1.01939542,41.8355377 L7.57829119,38.0222868 C7.99374643,37.7722478 8.26507043,37.3376414 8.26507043,36.855646 L8.26507043,28.757749 C8.26507043,28.2745066 8.51606823,27.8311706 8.92998361,27.5911082 L11.7217566,25.9536956 C11.9236098,25.8348824 12.1531788,25.7728806 12.3866698,25.7741164 C12.6145697,25.7741164 12.8486289,25.8317938 13.051275,25.9536956 L15.843356,27.5911082 C16.2560748,27.830682 16.5099536,28.2761319 16.5082692,28.757749 L16.5082692,36.8553342 C16.5082692,37.3373296 16.782365,37.7750538 17.1950484,38.0219751 L23.7539442,41.8355377 C23.9585368,41.9599816 24.2142649,41.9599816 24.4188574,41.8355377 C24.6245285,41.7150331 24.7512568,41.4927817 24.751468,41.2522172 L24.7730261,23.9122299 C24.7756987,23.4305105 24.5216817,22.9847308 24.1084209,22.7459008 L13.051275,16.2854165 C12.8643356,16.1744266 12.6653852,16.137326 12.4531919,16.1285965 L12.3201477,16.1285965 Z M111.67955,16.2854165 C111.44857,16.2854165 111.22221,16.3446526 111.014945,16.4649956 L99.9577989,22.9254799 C99.5456457,23.1654751 99.2919546,23.6104765 99.2928857,24.0918091 L99.2928857,37.0124659 C99.2928857,37.4985143 99.5632858,37.9387327 99.9796649,38.1791068 L110.948423,44.5049068 C111.353407,44.7387338 111.848011,44.7565047 112.255767,44.5267306 L118.903359,40.780822 C119.11432,40.6623496 119.256912,40.4409934 119.257836,40.1978133 C119.260147,39.9566527 119.132882,39.7332525 118.925533,39.6144929 L107.801865,33.1540085 C107.593675,33.0336656 107.447388,32.7901737 107.447388,32.5482407 L107.447388,28.5108277 C107.447388,28.2692065 107.595215,28.0478502 107.801865,27.9275073 L111.258551,25.908489 C111.464208,25.7879917 111.717808,25.7879917 111.923464,25.908489 L115.379843,27.9275073 C115.585977,28.0473898 115.712896,28.2698558 115.712453,28.510516 L115.712453,31.6958633 C115.711819,31.9364936 115.838646,32.159005 116.044756,32.278872 C116.252021,32.4001503 116.502711,32.400462 116.709361,32.278872 L123.335087,28.3764551 C123.74645,28.1355076 123.999831,27.6909306 124,27.2098143 L124,24.0921208 C124,23.6104372 123.747462,23.167413 123.335087,22.9254799 L112.344463,16.4649956 C112.142419,16.3466838 111.912959,16.2848191 111.67955,16.2857282 L111.67955,16.2854165 Z M78.6186746,25.9312482 C78.6765735,25.9312482 78.7443275,25.9455896 78.7960669,25.9758312 L82.5853637,28.1965642 C82.6882266,28.2567357 82.762756,28.3680374 82.762756,28.4880686 L82.762756,32.9295346 C82.762756,33.0501894 82.6888426,33.1611792 82.5853637,33.2213507 L78.7960669,35.4420838 C78.6931013,35.5016028 78.56673,35.5016028 78.4637643,35.4420838 L74.6747755,33.2213507 C74.5716047,33.1608675 74.4973832,33.0501894 74.4973832,32.9295346 L74.4973832,28.4880686 C74.4973832,28.3677256 74.5719126,28.2573592 74.6747755,28.1965642 L78.4637643,25.976143 C78.5103397,25.946817 78.5641335,25.9313659 78.6189826,25.9315599 L78.6189826,25.9312482 L78.6186746,25.9312482 Z" id="Shape" fill="#404137"></path>
            <path d="M45.4051664,16.0000035 C45.1744587,16.0000035 44.9462185,16.0581288 44.7395685,16.1762148 L33.6659064,22.4935114 C33.2516811,22.7299894 33,23.1864256 33,23.6599934 L33,36.3383336 C33,36.8125132 33.2519896,37.2456993 33.6659064,37.483095 L44.7395685,43.8221122 C45.1511935,44.0592959 45.6594478,44.0592959 46.0710728,43.8221122 L57.1447349,37.483095 C57.557387,37.2473753 57.8113112,36.8106512 57.8103329,36.3383336 L57.8103329,23.6599934 C57.8103329,23.1858137 57.5586517,22.7299894 57.1447349,22.4935114 L46.0710728,16.1762148 C45.8686549,16.0602598 45.6389182,15.9994671 45.4051664,16.0000035 Z M111.625376,27.31393 C111.58127,27.31393 111.532229,27.31393 111.492441,27.3359564 L109.362096,28.5685176 C109.281217,28.6130758 109.230431,28.6970301 109.228853,28.7887817 L109.228853,31.2098512 C109.228853,31.3010161 109.281904,31.3845329 109.362096,31.4301153 L111.492441,32.6406501 C111.572326,32.6865384 111.657453,32.6865384 111.736412,32.6406501 L113.866757,31.4298094 C113.94727,31.3850276 113.997938,31.3013856 114,31.2098512 L114,28.7884758 C113.997938,28.6969414 113.94727,28.6132993 113.866757,28.5685176 L111.736412,27.3356505 C111.696932,27.3127063 111.66979,27.3142359 111.625376,27.3142359 L111.625376,27.31393 Z" id="Shape" fill="#83CD29"></path>
        </g>
    </g>
</svg>