<?xml version="1.0" encoding="UTF-8"?>
<svg width="186px" height="91px" viewBox="0 0 186 91" version="1.1" xmlns="http://www.w3.org/2000/svg" xmlns:xlink="http://www.w3.org/1999/xlink">
    <!-- Generator: Sketch 48.2 (47327) - http://www.bohemiancoding.com/sketch -->
    <title>php</title>
    <desc>Created with Sketch.</desc>
    <defs></defs>
    <g id="logos/php" stroke="none" stroke-width="1" fill="none" fill-rule="evenodd">
        <g id="php" fill="#232531" fill-rule="nonzero">
            <path d="M0.945,90.082 L14.973,19.068 L47.41,19.068 C61.437,19.945 68.451,26.958 68.451,39.233 C68.451,60.274 51.794,72.548 36.889,71.671 L21.11,71.671 L17.603,90.082 L0.945,90.082 Z M24.616,58.521 L24.617,58.521 L35.137,58.521 C43.027,57.644 50.041,55.014 50.917,40.109 C50.917,34.849 46.534,32.219 40.397,32.219 L29,32.219 L24.616,58.521 Z M65.192,71.671 L79.219,0.658 L95.877,0.658 L92.37,19.068 L108.15,19.068 C122.178,19.945 127.438,26.958 125.685,35.726 L119.548,71.671 L102.014,71.671 L108.151,39.233 C109.027,34.849 109.027,32.219 102.891,32.219 L89.74,32.219 L81.85,71.671 L65.192,71.671 Z M118.425,90.082 L132.452,19.068 L164.89,19.068 C178.918,19.945 185.932,26.958 185.932,39.233 C185.932,60.274 169.274,72.548 154.37,71.671 L138.589,71.671 L135.082,90.082 L118.425,90.082 Z M142.095,58.521 L142.096,58.521 L152.617,58.521 C160.507,57.644 167.521,55.014 168.397,40.109 C168.397,34.849 164.014,32.219 157.877,32.219 L146.479,32.219 L142.095,58.521 Z" id="Shape"></path>
        </g>
    </g>
</svg>