<?xml version="1.0" encoding="UTF-8"?>
<svg width="90px" height="91px" viewBox="0 0 90 91" version="1.1" xmlns="http://www.w3.org/2000/svg" xmlns:xlink="http://www.w3.org/1999/xlink">
    <!-- Generator: Sketch 48.2 (47327) - http://www.bohemiancoding.com/sketch -->
    <title>python</title>
    <desc>Created with Sketch.</desc>
    <defs>
        <linearGradient x1="50%" y1="0%" x2="50%" y2="100%" id="linearGradient-1">
            <stop stop-color="#5A9FD4" offset="0%"></stop>
            <stop stop-color="#306998" offset="100%"></stop>
        </linearGradient>
        <path d="M45.684,0.846 L45.684,10.394 C45.684,17.798 39.406,24.029 32.25,24.029 L10.77,24.029 C4.887,24.029 0.018,29.064 0.018,34.956 L0.018,55.433 C0.018,61.26 5.085,64.689 10.77,66.36 C14.285,67.394 17.727,67.99 21.355,68 L21.56,68 C24.895,67.989 28.39,67.481 32.25,66.36 C37.664,64.793 43.001,61.638 43.001,55.433 L43.001,47.237 L21.522,47.237 L21.522,44.505 L43.001,44.505 L53.754,44.505 C60.003,44.505 62.333,40.146 64.505,33.603 C65.61,30.291 66.148,27.042 66.154,23.567 L66.154,23.507 C66.154,19.931 65.592,16.116 64.505,11.747 C62.962,5.527 60.011,0.846 53.754,0.846 L45.684,0.846 Z M29.568,56.786 C29.568,54.527 31.382,52.701 33.603,52.701 C35.832,52.701 37.638,54.527 37.638,56.786 C37.638,59.052 35.832,60.896 33.603,60.896 C31.382,60.896 29.568,59.052 29.568,56.786 Z" id="path-2"></path>
        <linearGradient x1="50%" y1="22.3618481%" x2="50%" y2="100%" id="linearGradient-4">
            <stop stop-color="#FFE873" offset="0%"></stop>
            <stop stop-color="#FFD43B" offset="100%"></stop>
        </linearGradient>
    </defs>
    <g id="logos/python" stroke="none" stroke-width="1" fill="none" fill-rule="evenodd" transform="translate(0.000000, -1.000000)">
        <g id="python">
            <g id="Group-3" transform="translate(0.000000, 0.138400)" fill="url(#linearGradient-1)">
                <path d="M44.047,0.862 C44.158,0.862 44.269,0.861 44.38,0.861 C47.953,0.862 51.667,1.143 55.25,1.739 C61.085,2.712 66.001,7.09 66.001,12.918 L66.001,33.394 C66.001,39.398 61.229,44.322 55.25,44.322 L33.77,44.322 C26.477,44.322 20.336,50.583 20.336,57.68 L20.336,67.505 L12.943,67.505 C6.693,67.505 3.043,62.969 1.514,56.603 C0.51,52.441 0.016,49.094 0,45.811 L0,45.488 C0.016,42.135 0.531,38.822 1.514,34.747 C3.226,27.601 8.698,23.846 14.947,23.846 L23.018,23.846 L44.522,23.846 L44.522,21.113 L23.018,21.113 L23.018,12.918 C23.018,6.712 24.671,3.347 33.77,1.739 C36.859,1.193 40.37,0.879 44.047,0.862 Z M28.382,11.564 C28.382,13.822 30.188,15.649 32.417,15.649 C34.638,15.649 36.452,13.822 36.452,11.564 C36.452,9.297 34.638,7.454 32.417,7.454 C30.188,7.454 28.382,9.297 28.382,11.564 Z" id="Fill-1"></path>
            </g>
            <g id="Group-6" transform="translate(23.000000, 23.138400)">
                <mask id="mask-3" fill="white">
                    <use xlink:href="#path-2"></use>
                </mask>
                <g id="Clip-5"></g>
                <path d="M45.684,0.846 L53.754,0.846 C60.011,0.846 62.962,5.527 64.505,11.747 C65.592,16.116 66.154,19.931 66.154,23.507 L66.154,23.567 C66.148,27.042 65.61,30.291 64.505,33.603 C62.333,40.146 60.003,44.505 53.754,44.505 L43.001,44.505 L21.522,44.505 L21.522,47.237 L43.001,47.237 L43.001,55.433 C43.001,61.638 37.664,64.793 32.25,66.36 C28.39,67.481 24.895,67.989 21.56,68 L21.355,68 C17.727,67.99 14.285,67.394 10.77,66.36 C5.085,64.689 0.018,61.26 0.018,55.433 L0.018,34.956 C0.018,29.064 4.887,24.029 10.77,24.029 L32.25,24.029 C39.406,24.029 45.684,17.798 45.684,10.394 L45.684,0.846 Z M29.568,56.786 C29.568,59.052 31.382,60.896 33.603,60.896 C35.832,60.896 37.638,59.052 37.638,56.786 C37.638,54.527 35.832,52.701 33.603,52.701 C31.382,52.701 29.568,54.527 29.568,56.786 Z" id="Fill-4" fill="url(#linearGradient-4)" mask="url(#mask-3)"></path>
            </g>
        </g>
    </g>
</svg>