<?xml version="1.0" encoding="UTF-8"?>
<svg width="256px" height="247px" viewBox="0 0 256 247" version="1.1" xmlns="http://www.w3.org/2000/svg" xmlns:xlink="http://www.w3.org/1999/xlink">
    <!-- Generator: Sketch 48.2 (47327) - http://www.bohemiancoding.com/sketch -->
    <title>reactivex</title>
    <desc>Created with Sketch.</desc>
    <defs>
        <radialGradient cx="78.764%" cy="37.848%" fx="78.764%" fy="37.848%" r="89.873%" gradientTransform="translate(0.787640,0.378480),scale(0.715347,1.000000),translate(-0.787640,-0.378480)" id="radialGradient-1">
            <stop stop-color="#F80090" offset="0%"></stop>
            <stop stop-color="#4D008E" offset="100%"></stop>
        </radialGradient>
        <radialGradient cx="68.739%" cy="4.398%" fx="68.739%" fy="4.398%" r="81.728%" gradientTransform="translate(0.687390,0.043980),scale(0.756462,1.000000),translate(-0.687390,-0.043980)" id="radialGradient-2">
            <stop stop-color="#57008E" offset="0%"></stop>
            <stop stop-color="#5C008E" offset="29.175%"></stop>
            <stop stop-color="#F80090" offset="100%"></stop>
        </radialGradient>
        <linearGradient x1="29.8245353%" y1="0%" x2="69.7930577%" y2="84.337%" id="linearGradient-3">
            <stop stop-color="#F70090" offset="0%"></stop>
            <stop stop-color="#E50090" offset="66.971%"></stop>
            <stop stop-color="#D6008F" stop-opacity="0.2" offset="82.715%"></stop>
            <stop stop-color="#C10090" stop-opacity="0" offset="100%"></stop>
        </linearGradient>
        <linearGradient x1="54.4439249%" y1="71.559%" x2="48.297678%" y2="50%" id="linearGradient-4">
            <stop stop-color="#B2008F" stop-opacity="0.151" offset="0%"></stop>
            <stop stop-color="#F70090" stop-opacity="0.4" offset="40.035%"></stop>
            <stop stop-color="#F60090" stop-opacity="0.892" offset="64.9%"></stop>
            <stop stop-color="#FF0090" offset="100%"></stop>
        </linearGradient>
    </defs>
    <g id="logos/reactivex" stroke="none" stroke-width="1" fill="none" fill-rule="evenodd" transform="translate(-1.000000, 0.000000)">
        <g id="reactivex" fill-rule="nonzero">
            <path d="M17.685,157.125 C4.567,87.38 39.236,20.115 118.81,11.166 C107.836,-0.559 92.845,-0.647 85.949,0.78 C73.77,4.66 74.152,12.541 60.338,22.72 C46.605,30.563 39.708,24.557 29.705,32.688 C19.722,40.758 26.688,59.285 22.501,62.888 C18.345,70.091 5.454,76.508 3.107,85.606 C1.167,97.242 8.371,105.554 8.094,115.528 C8.926,123.839 -0.18,128.539 1.128,135.276 C5.047,146.281 12.6,152.905 16.161,155.958 C16.977,156.534 17.839,157.951 17.684,157.125 L17.685,157.125 Z" id="Shape" fill="#FF0090"></path>
            <path d="M159.275,60.579 C157.393997,60.5788214 155.655973,59.575153 154.715626,57.946067 C153.775279,56.316981 153.77547,54.3099743 154.716126,52.6810669 C155.656783,51.0521596 157.394997,50.0488213 159.276,50.049 C162.183779,50.049 164.541,52.4062208 164.541,55.314 C164.541,58.2217792 162.183779,60.579 159.276,60.579 L159.275,60.579 Z M20.757,164.733 C8.15,104.117 47.16,53.468 122.704,78.403 C167.031,104.335 222.794,102.646 225.307,85.883 C231.514,65.788 197.047,24.377 145.515,13.572 C43.281,-6.377 -11.834,104.117 20.757,164.732 L20.757,164.733 Z" id="Shape" fill="url(#radialGradient-1)"></path>
            <path d="M188.459,171.493 C203.639,173.138 218.049,169.495 231.402,158.61 C211.228,181.113 186.002,192.427 157.059,195.505 C170.879,207.254 184.206,212.546 196.955,210.281 C161.529,220.057 131.848,209.297 95.742,173.341 C93.852,183.02 104.075,198.101 114.612,207.727 C53.474,181.222 48.114,98.654 122.665,78.344 C45.385,41.214 1.686,113.358 23.155,172.486 C44.162,218.026 100.14,253.086 161.492,245.376 C191.292,241.726 235.794,221.179 253.974,172.486 C241.161,183.984 218.258,193.998 208.038,194.766 C242.628,177.479 261.302,148.104 256.06,107.956 C248.895,125.014 239.441,138.115 227.616,147.112 C252.736,107.955 248.426,87.716 229.833,65.473 C243.131,102.045 225.928,142.634 188.459,171.493 Z" id="Shape" fill="url(#radialGradient-2)"></path>
            <path d="M170.707,213.626 C168.082,213.136 176.657,217.099 160.079,212.71 C143.502,208.322 126.623,204.093 95.742,173.34 C93.852,183.02 104.075,198.1 114.612,207.727 C143.056,227.565 123.712,218.287 167.052,233.269 C170.53,226.347 170.707,220.195 170.707,213.626 Z" id="Shape" fill="url(#linearGradient-3)"></path>
            <path d="M115.601,57.851 C115.601,57.851 119.369,52.289 120.836,49.781 C122.634,46.707 125.394,41.105 125.394,41.105 C125.394,41.105 96.39,31.642 89.272,30.487 C67.145,36.231 67.065,45.501 79.435,59.69 C80.811,61.27 115.601,57.851 115.601,57.851 Z" id="Shape" fill="url(#linearGradient-4)"></path>
        </g>
    </g>
</svg>