<?xml version="1.0" encoding="UTF-8"?>
<svg width="103px" height="92px" viewBox="0 0 103 92" version="1.1" xmlns="http://www.w3.org/2000/svg" xmlns:xlink="http://www.w3.org/1999/xlink">
    <!-- Generator: Sketch 48.2 (47327) - http://www.bohemiancoding.com/sketch -->
    <title>react</title>
    <desc>Created with Sketch.</desc>
    <defs></defs>
    <g id="logos/react" stroke="none" stroke-width="1" fill="none" fill-rule="evenodd" transform="translate(-1.000000, 0.000000)">
        <g id="react" transform="translate(1.000000, 0.000000)" fill-rule="nonzero">
            <path d="M84.6870453,29.818808 C83.5907334,29.4412777 82.4851202,29.0915391 81.3712581,28.7699252 C81.5559765,28.0163979 81.7267941,27.2595046 81.8836234,26.4996338 C84.3934837,14.268159 82.7524562,4.41451796 77.1483475,1.17085237 C71.7753501,-1.94010117 62.987648,1.30356442 54.1124245,9.05715162 C53.237886,9.82291988 52.3827594,10.6107486 51.5478633,11.4198838 C50.9887561,10.8818569 50.419769,10.3542741 49.8411947,9.83740695 C40.53976,1.54610714 31.2164448,-1.94742321 25.618262,1.30585256 C20.2502788,4.42550102 18.6603055,13.6892598 20.9199092,25.2809711 C21.144724,26.4288887 21.3985574,27.570886 21.6811636,28.7058573 C20.3619599,29.0820273 19.0878844,29.4829092 17.8689656,29.9094183 C6.96433819,33.7260338 0,39.708144 0,45.9126612 C0,52.3212804 7.47579175,58.7491199 18.8344368,62.646278 C19.7554552,62.9608194 20.6841396,63.2522663 21.6196251,63.520347 C21.3157168,64.743101 21.0459055,65.9741426 20.8105074,67.2120302 C18.656203,78.6023852 20.338712,87.6464827 25.692564,90.7469108 C31.2223707,93.948017 40.5032927,90.6576734 49.5407956,82.7269842 C50.2550983,82.1000342 50.9721362,81.435101 51.6900857,80.738134 C52.594393,81.6140607 53.5228457,82.4645108 54.4743623,83.2884935 C63.2283321,90.8507923 71.8738117,93.9045423 77.2231054,90.7958769 C82.7478978,87.5851606 84.5429995,77.8692655 82.2118289,66.0482828 C82.0340509,65.1453832 81.8266432,64.2232632 81.5941644,63.2842111 C82.2460169,63.0910921 82.8855618,62.8915664 83.5096081,62.6838034 C95.3177123,58.756442 103,52.4068568 103,45.9126612 C103,39.6857202 95.8113881,33.6633388 84.6870453,29.818808 Z" id="Shape" fill="#53C1DE"></path>
            <path d="M82.5605075,57.9641457 C81.9987418,58.1509006 81.4219654,58.331263 80.8342721,58.506146 C79.5333411,54.3724236 77.7775391,49.976605 75.6296382,45.4355832 C77.6797418,41.0018657 79.3673132,36.6626672 80.6318545,32.5554284 C81.6830614,32.8613594 82.7037919,33.183272 83.687223,33.5234491 C93.1985754,36.8096968 99,41.6694347 99,45.4136658 C99,49.4021851 92.7341521,54.5801827 82.5609624,57.9641457 L82.5605075,57.9641457 Z M78.3393047,66.3608122 C79.367768,71.5762521 79.5146914,76.2917002 78.8332946,79.9779414 C78.2210383,83.290216 76.9901574,85.4983991 75.468159,86.3828596 C72.2290227,88.2650206 65.3017924,85.8184852 57.831901,79.3656226 C56.9753789,78.6259086 56.1124886,77.8359672 55.247324,77.0003644 C58.1434876,73.8205077 61.0378317,70.1237644 63.8625806,66.0188086 C68.8315913,65.5763501 73.5258599,64.8526177 77.7829975,63.8649626 C77.9922382,64.7142638 78.1787353,65.5466702 78.3393047,66.3608122 Z M35.6496622,86.0577507 C32.4851248,87.1796502 29.9646846,87.2116131 28.4413216,86.3298924 C25.1990012,84.4532107 23.8516733,77.2067537 25.689807,67.4877344 C25.9083907,66.3391506 26.158666,65.1968732 26.4403442,64.0622196 C30.6501752,64.9969075 35.3103285,65.6694993 40.2911658,66.0749721 C43.1345644,70.0918015 46.1126048,73.7839786 49.1138436,77.0172591 C48.4760004,77.6366387 47.8230627,78.2401603 47.1556239,78.8272752 C43.16777,82.3267614 39.1717283,84.8089127 35.6501171,86.0577507 L35.6496622,86.0577507 Z M20.824052,57.9394886 C15.8122835,56.219882 11.6734123,53.9852153 8.83638194,51.5468989 C6.2872849,49.3551539 5,47.1793904 5,45.4136658 C5,41.6571062 10.5799024,36.864947 19.886108,33.6079226 C21.0541709,33.2009052 22.2338534,32.8283011 23.4236397,32.4905892 C24.7100149,36.690064 26.3971314,41.0808599 28.433134,45.52097 C26.3707489,50.0272891 24.6595242,54.4879468 23.3613224,58.7367358 C22.5091859,58.4918961 21.6631736,58.2260667 20.824052,57.9394886 Z M25.7939725,23.9811392 C23.8621354,14.0712554 25.1448716,6.59603506 28.373091,4.72026662 C31.8119157,2.72212574 39.4150843,5.57139426 47.4290014,12.7142 C47.9411861,13.1708135 48.4556452,13.6488879 48.9710141,14.1434004 C45.9852409,17.3620692 43.0344928,21.0263929 40.2156572,25.019935 C35.3817432,25.4696994 30.7543406,26.192062 26.5003871,27.1596261 C26.2383466,26.1061043 26.0028003,25.0461199 25.7939725,23.9806826 L25.7939725,23.9811392 Z M70.1288833,34.9704574 C69.1241084,33.2282165 68.0820605,31.5079063 67.0034648,29.8107243 C70.2830846,30.2262427 73.4248785,30.778745 76.3751718,31.4549897 C75.489538,34.3047148 74.3855661,37.2845748 73.0855448,40.3393195 C72.135691,38.5301206 71.1499406,36.7401431 70.1288833,34.9704574 Z M52.0491261,17.2931206 C54.0742117,19.4953677 56.1024815,21.9546883 58.0975456,24.6226812 C54.0505633,24.4307118 49.9968288,24.4297976 45.949761,24.6199415 C47.9466446,21.9766057 49.9921994,19.5209381 52.0491261,17.2931206 Z M33.8533767,35.0005939 C32.8451033,36.7562054 31.8777842,38.5351995 30.9522095,40.3361232 C29.6735672,37.2918807 28.5796024,34.2987789 27.6862358,31.4084151 C30.6187891,30.7495218 33.7460271,30.2111744 37.004268,29.8025053 C35.9135844,31.5102055 34.8629978,33.2433794 33.8533767,35.0005939 Z M37.0979715,61.339433 C33.7319261,60.9622702 30.5573815,60.4513197 27.625738,59.8106909 C28.5332056,56.8691864 29.6512785,53.8117021 30.9572131,50.7021639 C31.8866898,52.5044224 32.8582595,54.2844897 33.8711167,56.0408895 C34.9046342,57.8325624 35.9805582,59.5992455 37.0979715,61.339433 Z M52.1705766,73.8456214 C50.0895418,71.5913204 48.0139655,69.0982104 45.9866055,66.416519 C47.9543774,66.4941434 49.9608133,66.5334121 52,66.5334121 C54.0951358,66.5334121 56.1661634,66.4863809 58.2044403,66.3950582 C56.203008,69.1256072 54.1820161,71.6223701 52.1705766,73.8456214 Z M73.1273929,50.543719 C74.5011033,53.6870466 75.6592048,56.7280928 76.578954,59.6198264 C73.5986393,60.3024637 70.3813367,60.8522264 66.9911832,61.2604389 C68.077575,59.5315694 69.1295965,57.7811756 70.1466233,56.0102963 C71.180493,54.2105292 72.174329,52.3878854 73.1273929,50.543719 Z M66.3429921,53.8085058 C64.7860596,56.5235099 63.1415902,59.1869743 61.4121905,61.7946767 C58.3627354,62.0133946 55.2113892,62.1261782 52,62.1261782 C48.8018021,62.1261782 45.6904845,62.0261798 42.6942493,61.8312058 C40.919996,59.2295751 39.2444179,56.5615009 37.6711089,53.8327063 C36.1051538,51.1183897 34.6424477,48.3453561 33.2861526,45.5196001 C34.638998,42.6929976 36.097284,39.9184786 37.6579177,37.2019278 L37.6579177,37.202841 C39.2180617,34.4857117 40.8804487,31.8290457 42.6414842,29.2385876 C45.6982173,29.0066279 48.8322784,28.8851687 52.0004549,28.8851687 C55.1827323,28.8851687 58.3208873,29.0075411 61.3767106,29.2413272 C63.1199336,31.8277991 64.7716882,34.4752176 66.3288911,37.1786405 C67.8948913,39.8891475 69.3726389,42.6500755 70.7597894,45.4570441 C69.3869079,48.2926113 67.9138601,51.0781973 66.343447,53.8085058 L66.3429921,53.8085058 Z M75.4008381,4.58921853 C78.842392,6.58188004 80.1810774,14.6169086 78.0186207,25.1541794 C77.8768832,25.8406189 77.7228084,26.5244331 77.5564717,27.2052874 C73.2925111,26.2176323 68.6619244,25.4824845 63.8139094,25.025871 C60.9896154,20.9889506 58.0634303,17.3182343 55.1258734,14.1411173 C55.8956349,13.3961742 56.6837146,12.6705436 57.4893831,11.9648971 C65.077541,5.33578168 72.1694346,2.71847283 75.4008381,4.58921853 Z" id="Shape" fill="#FFFFFF"></path>
            <path d="M51.5,36 C56.7469644,36 61,40.2534011 61,45.4997646 C61,50.7465989 56.7469644,55 51.5,55 C46.2535065,55 42,50.7465989 42,45.4997646 C42,40.2534011 46.2535065,36 51.5,36" id="Shape" fill="#53C1DE"></path>
        </g>
    </g>
</svg>