<?xml version="1.0" encoding="UTF-8"?>
<svg width="257px" height="256px" viewBox="0 0 257 256" version="1.1" xmlns="http://www.w3.org/2000/svg" xmlns:xlink="http://www.w3.org/1999/xlink">
    <!-- Generator: Sketch 48.2 (47327) - http://www.bohemiancoding.com/sketch -->
    <title>swift-15</title>
    <desc>Created with Sketch.</desc>
    <defs>
        <linearGradient x1="59.4044171%" y1="-3.56835938%" x2="40.4900015%" y2="103.580469%" id="linearGradient-1">
            <stop stop-color="#FAAE42" offset="0%"></stop>
            <stop stop-color="#EF3E31" offset="100%"></stop>
        </linearGradient>
        <linearGradient x1="59.840562%" y1="1.97408483%" x2="43.6223274%" y2="97.7940434%" id="linearGradient-2">
            <stop stop-color="#E39F3A" offset="0%"></stop>
            <stop stop-color="#D33929" offset="100%"></stop>
        </linearGradient>
    </defs>
    <g id="logos/swift" stroke="none" stroke-width="1" fill="none" fill-rule="evenodd">
        <g id="swift-15" fill-rule="nonzero">
            <path d="M56.9,0 L198.7,0 C205.6,0 212.3,1.1 218.8,3.4 C228.2,6.8 236.7,12.8 243.1,20.6 C249.6,28.4 253.9,38 255.4,48 C256,51.7 256.1,55.4 256.1,59.1 L256.1,197.4 C256.1,201.8 255.9,206.3 255,210.6 C253,220.5 248.3,229.8 241.5,237.3 C234.8,244.8 226,250.4 216.5,253.4 C210.7,255.2 204.7,256 198.6,256 C195.9,256 56.5,256 54.4,255.9 C44.2,255.4 34.1,252.1 25.6,246.4 C17.3,240.8 10.5,233 6.1,224 C2.3,216.3 0.4,207.7 0.4,199.1 L0.4,56.9 C0.2,48.4 2,40 5.7,32.4 C10,23.4 16.7,15.5 25,9.9 C33.5,4.1 43.5,0.7 53.7,0.2 C54.7,0 55.8,0 56.9,0 Z" id="Shape" fill="url(#linearGradient-1)"></path>
            <path d="M216,209.4 C215.1,208 214.1,206.6 213,205.3 C210.5,202.3 207.6,199.7 204.4,197.5 C200.4,194.8 195.7,193.1 190.9,192.9 C187.5,192.7 184.1,193.3 180.9,194.5 C177.7,195.6 174.6,197.2 171.6,198.8 C168.1,200.6 164.6,202.4 160.9,203.9 C156.5,205.7 151.9,207.1 147.2,208.1 C141.3,209.2 135.3,209.6 129.4,209.5 C118.7,209.3 108,207.7 97.8,204.7 C88.8,202 80.2,198.3 72.1,193.6 C65,189.5 58.4,184.8 52.2,179.5 C47.1,175.1 42.4,170.4 38,165.4 C35,161.9 32.1,158.2 29.4,154.4 C28.3,152.9 27.3,151.3 26.4,149.7 L0,121.2 L0,56.7 C0,25.4 25.3,0 56.6,0 L107.1,0 L144.5,38 C228.9,95.4 201.6,158.7 201.6,158.7 C201.6,158.7 225.6,185.7 216,209.4 Z" id="Shape" fill="url(#linearGradient-2)"></path>
            <path d="M144.7,38 C229.1,95.4 201.8,158.7 201.8,158.7 C201.8,158.7 225.8,185.8 216.1,209.5 C216.1,209.5 206.2,192.9 189.6,192.9 C173.6,192.9 164.2,209.5 132,209.5 C60.3,209.5 26.4,149.6 26.4,149.6 C91,192.1 135.1,162 135.1,162 C106,145.1 44.1,64.3 44.1,64.3 C98,110.2 121.3,122.3 121.3,122.3 C107.4,110.8 68.4,54.6 68.4,54.6 C99.6,86.2 161.6,130.3 161.6,130.3 C179.2,81.5 144.7,38 144.7,38 Z" id="Shape" fill="#FFFFFF"></path>
        </g>
    </g>
</svg>