<?xml version="1.0" encoding="UTF-8"?>
<svg width="156px" height="47px" viewBox="0 0 156 47" version="1.1" xmlns="http://www.w3.org/2000/svg" xmlns:xlink="http://www.w3.org/1999/xlink">
    <!-- Generator: Sketch 48.2 (47327) - http://www.bohemiancoding.com/sketch -->
    <title>logo</title>
    <desc>Created with Sketch.</desc>
    <defs>
        <linearGradient x1="100%" y1="46.6483991%" x2="-15.7748423%" y2="117.167358%" id="linearGradient-1">
            <stop stop-color="#E02386" offset="0%"></stop>
            <stop stop-color="#CF2685" offset="44.430064%"></stop>
            <stop stop-color="#893081" offset="100%"></stop>
        </linearGradient>
        <linearGradient x1="100%" y1="39.5213372%" x2="-15.7748423%" y2="117.167358%" id="linearGradient-2">
            <stop stop-color="#E02386" offset="0%"></stop>
            <stop stop-color="#CF2685" offset="44.430064%"></stop>
            <stop stop-color="#893081" offset="100%"></stop>
        </linearGradient>
        <linearGradient x1="56.2638391%" y1="0%" x2="92.5876691%" y2="97.1334356%" id="linearGradient-3">
            <stop stop-color="#E02386" offset="0%"></stop>
            <stop stop-color="#CF2685" offset="44.430064%"></stop>
            <stop stop-color="#913B8E" offset="100%"></stop>
        </linearGradient>
        <path d="M23.4998259,0 C10.5419259,0 0,10.5031993 0,23.4131107 C0,36.3238893 10.5419259,46.827262 23.4998259,46.827262 C36.4579,46.827262 47,36.3238893 47,23.4131107 C47,10.5031993 36.4579,0 23.4998259,0 Z M1.46326667,23.4131107 C1.46326667,11.3068819 11.3489333,1.45786716 23.4998259,1.45786716 C35.6512407,1.45786716 45.5369074,11.3068819 45.5369074,23.4131107 C45.5369074,35.5198598 35.6512407,45.3697417 23.4998259,45.3697417 C11.3489333,45.3697417 1.46326667,35.5198598 1.46326667,23.4131107 Z" id="path-4"></path>
    </defs>
    <g id="Evolve-1.0---Landing-Page" stroke="none" stroke-width="1" fill="none" fill-rule="evenodd" transform="translate(-80.000000, -60.000000)">
        <g id="header" transform="translate(80.000000, -406.000000)">
            <g id="logo" transform="translate(0.000000, 466.000000)">
                <g id="shape">
                    <path d="M32.4530664,9.01845018 C32.3044354,9.01931734 32.1549373,9.02278598 32.0050923,9.02885609 C31.9790775,9.02885609 31.954797,9.03059041 31.9287823,9.03059041 C28.4098524,9.17280443 25.090369,10.5741328 22.5338118,13.012583 L16.772583,18.7549077 C15.1596679,16.1622768 12.29631,14.5214391 9.1502583,14.5214391 C4.20051661,14.5214391 0.173431734,18.548524 0.173431734,23.4982657 C0.173431734,28.4480074 4.20051661,32.4750923 9.1502583,32.4750923 C9.1901476,32.4750923 9.22830258,32.4733579 9.26819188,32.4733579 C9.34276753,32.4716236 9.41560886,32.4716236 9.4901845,32.468155 C9.51273063,32.468155 9.53527675,32.4664207 9.55782288,32.4646863 C11.1551292,32.3953137 12.6778598,31.9097048 14.0132841,31.0477491 L14.0340959,31.0650923 L18.6074908,27.6016605 L18.7757196,28.0751292 L18.7791882,28.0839742 C20.7528413,34.0012915 26.2749077,37.9780812 32.5167159,37.9780812 C40.5015129,37.9780812 46.9965314,31.4830627 46.9965314,23.4982657 C46.9965314,23.4115498 46.9965314,23.3248339 46.994797,23.2381181 L46.9965314,23.2381181 C46.928893,19.4260886 45.3922878,15.8518339 42.6709705,13.1738745 C40.1269004,10.6728155 36.8160886,9.219631 33.2779077,9.03752768 L33.2590037,9.03752768 C33.1480074,9.03232472 33.0370111,9.02712177 32.9261882,9.02365314 L32.8876863,9.02365314 C32.7850148,9.0207048 32.6833838,9.01897048 32.5808856,9.01845018 L32.4530664,9.01845018 Z M32.6016974,17.0136531 C34.0099631,15.9609225 35.6835793,15.4042066 37.4456458,15.4042066 C41.8456089,15.4042066 45.3886458,18.8345129 45.5345018,23.2242435 C45.5364096,23.314428 45.5379705,23.4063469 45.5379705,23.4982657 C45.5379705,30.6766052 39.6969631,36.5179594 32.5167159,36.5179594 C26.9044649,36.5179594 21.9391144,32.9433579 20.1612657,27.6120664 L19.8267159,26.6790037 L32.0970111,17.384797 L32.1004797,17.3882657 L32.6016974,17.0136531 Z M1.63372694,23.5 L1.63372694,23.4965314 C1.63372694,21.4240221 2.47660517,19.5457565 3.83804428,18.1860517 C5.19774908,16.8246125 7.07774908,15.9817343 9.1502583,15.9817343 C11.9008856,15.9817343 14.3930996,17.4801845 15.7059779,19.8180443 L9.05313653,26.4500738 L9.02712177,26.4778229 C8.98723247,26.5230886 8.94214022,26.5662731 8.88664207,26.6183026 C8.08712177,27.3779336 7.03785978,27.7959041 5.93136531,27.7959041 C3.56228782,27.7959041 1.63546125,25.8690775 1.63372694,23.5 Z" id="Clip-2" fill="url(#linearGradient-1)"></path>
                    <path d="M32.4530664,9.01845018 C32.3044354,9.01931734 32.1549373,9.02278598 32.0050923,9.02885609 C31.9790775,9.02885609 31.954797,9.03059041 31.9287823,9.03059041 C28.4098524,9.17280443 25.090369,10.5741328 22.5338118,13.012583 L16.772583,18.7549077 C15.1596679,16.1622768 12.29631,14.5214391 9.1502583,14.5214391 C4.20051661,14.5214391 0.173431734,18.548524 0.173431734,23.4982657 C0.173431734,28.4480074 4.20051661,32.4750923 9.1502583,32.4750923 C9.1901476,32.4750923 9.22830258,32.4733579 9.26819188,32.4733579 C9.34276753,32.4716236 9.41560886,32.4716236 9.4901845,32.468155 C9.51273063,32.468155 9.53527675,32.4664207 9.55782288,32.4646863 C11.1551292,32.3953137 12.6778598,31.9097048 14.0132841,31.0477491 L14.0340959,31.0650923 L18.6074908,27.6016605 L18.7757196,28.0751292 L18.7791882,28.0839742 C20.7528413,34.0012915 26.2749077,37.9780812 32.5167159,37.9780812 C40.5015129,37.9780812 46.9965314,31.4830627 46.9965314,23.4982657 C46.9965314,23.4115498 46.9965314,23.3248339 46.994797,23.2381181 L46.9965314,23.2381181 C46.928893,19.4260886 45.3922878,15.8518339 42.6709705,13.1738745 C40.1269004,10.6728155 36.8160886,9.219631 33.2779077,9.03752768 L33.2590037,9.03752768 C33.1480074,9.03232472 33.0370111,9.02712177 32.9261882,9.02365314 L32.8876863,9.02365314 C32.7850148,9.0207048 32.6833838,9.01897048 32.5808856,9.01845018 L32.4530664,9.01845018 Z M32.6016974,17.0136531 C34.0099631,15.9609225 35.6835793,15.4042066 37.4456458,15.4042066 C41.8456089,15.4042066 45.3886458,18.8345129 45.5345018,23.2242435 C45.5364096,23.314428 45.5379705,23.4063469 45.5379705,23.4982657 C45.5379705,30.6766052 39.6969631,36.5179594 32.5167159,36.5179594 C26.9044649,36.5179594 21.9391144,32.9433579 20.1612657,27.6120664 L19.8267159,26.6790037 L32.0970111,17.384797 L32.1004797,17.3882657 L32.6016974,17.0136531 Z M1.63372694,23.5 L1.63372694,23.4965314 C1.63372694,21.4240221 2.47660517,19.5457565 3.83804428,18.1860517 C5.19774908,16.8246125 7.07774908,15.9817343 9.1502583,15.9817343 C11.9008856,15.9817343 14.3930996,17.4801845 15.7059779,19.8180443 L9.05313653,26.4500738 L9.02712177,26.4778229 C8.98723247,26.5230886 8.94214022,26.5662731 8.88664207,26.6183026 C8.08712177,27.3779336 7.03785978,27.7959041 5.93136531,27.7959041 C3.56228782,27.7959041 1.63546125,25.8690775 1.63372694,23.5 Z" id="Clip-2" fill="url(#linearGradient-2)"></path>
                    <path d="M23.4998259,0 C10.5419259,0 0,10.5031993 0,23.4131107 C0,36.3238893 10.5419259,46.827262 23.4998259,46.827262 C36.4579,46.827262 47,36.3238893 47,23.4131107 C47,10.5031993 36.4579,0 23.4998259,0 Z M1.46326667,23.457172 C1.46326667,11.3266476 11.3489333,1.45786716 23.4998259,1.45786716 C35.6512407,1.45786716 45.5369074,11.3266476 45.5369074,23.457172 C45.5369074,35.5882178 35.6512407,45.4578672 23.4998259,45.4578672 C11.3489333,45.4578672 1.46326667,35.5882178 1.46326667,23.457172 Z" id="Clip-2" fill="url(#linearGradient-3)"></path>
                    <g id="Clip-2">
                        <mask id="mask-5" fill="white">
                            <use xlink:href="#path-4"></use>
                        </mask>
                        <use id="Mask" fill="url(#linearGradient-3)" xlink:href="#path-4"></use>
                        <path d="M33.0204067,9.01845018 C32.8775738,9.01931734 32.7339076,9.02278598 32.589908,9.02885609 C32.5649081,9.02885609 32.5415748,9.03059041 32.5165749,9.03059041 C29.1349184,9.17280443 25.944928,10.5741328 23.4881021,13.012583 L17.9516187,18.7549077 C16.4016234,16.1622768 13.649965,14.5214391 10.6266407,14.5214391 C5.86998836,14.5214391 2,18.548524 2,23.4982657 C2,28.4480074 5.86998836,32.4750923 10.6266407,32.4750923 C10.6649739,32.4750923 10.7016405,32.4733579 10.7399737,32.4733579 C10.8116402,32.4716236 10.88164,32.4716236 10.9533064,32.468155 C10.974973,32.468155 10.9966396,32.4664207 11.0183062,32.4646863 C12.5533016,32.3953137 14.0166305,31.9097048 15.29996,31.0477491 L15.3199599,31.0650923 L19.7149467,27.6016605 L19.8766129,28.0751292 L19.8799462,28.0839742 C21.7766072,34.0012915 27.0832579,37.9780812 33.0815732,37.9780812 C40.7548835,37.9780812 46.9965314,31.4830627 46.9965314,23.4982657 C46.9965314,23.4115498 46.9965314,23.3248339 46.9948647,23.2381181 L46.9965314,23.2381181 C46.9315316,19.4260886 45.4548693,15.8518339 42.8397105,13.1738745 C40.3948845,10.6728155 37.2132274,9.219631 33.813071,9.03752768 L33.7949044,9.03752768 C33.688238,9.03232472 33.5815717,9.02712177 33.475072,9.02365314 L33.4380721,9.02365314 C33.3394058,9.0207048 33.2417394,9.01897048 33.1432397,9.01845018 L33.0204067,9.01845018 Z M33.1632396,17.0136531 C34.5165689,15.9609225 36.1248974,15.4042066 37.8182256,15.4042066 C42.0465462,15.4042066 45.4513693,18.8345129 45.5915356,23.2242435 C45.5933689,23.314428 45.5948689,23.4063469 45.5948689,23.4982657 C45.5948689,30.6766052 39.9817191,36.5179594 33.0815732,36.5179594 C27.6882561,36.5179594 22.9166038,32.9433579 21.2081089,27.6120664 L20.8866099,26.6790037 L32.6782411,17.384797 L32.6815744,17.3882657 L33.1632396,17.0136531 Z M3.40332911,23.5 L3.40332911,23.4965314 C3.40332911,21.4240221 4.21332668,19.5457565 5.52165608,18.1860517 C6.82831881,16.8246125 8.63498005,15.9817343 10.6266407,15.9817343 C13.2699661,15.9817343 15.6649589,17.4801845 16.9266218,19.8180443 L10.5333077,26.4500738 L10.5083077,26.4778229 C10.4699745,26.5230886 10.4266413,26.5662731 10.3733082,26.6183026 C9.60497713,27.3779336 8.59664683,27.7959041 7.5333167,27.7959041 C5.25665687,27.7959041 3.40499578,25.8690775 3.40332911,23.5 Z" fill="url(#linearGradient-1)" mask="url(#mask-5)"></path>
                    </g>
                </g>
                <g id="text" transform="translate(63.000000, 14.000000)" fill="url(#linearGradient-2)">
                    <polygon id="Fill-1" points="0 1 0 19 12 19 12 17.5379919 1.63869265 17.5379919 1.63869265 10.4289775 11.2290971 10.4289775 11.2290971 8.96623844 1.63869265 8.96623844 1.63869265 2.4620081 11.8795901 2.4620081 11.8795901 1"></polygon>
                    <polygon id="Fill-2" points="16.7762781 1 22.5 17.1091362 22.5493609 17.1091362 28.2237219 1 30 1 23.4621805 19 21.5130198 19 15 1"></polygon>
                    <path d="M34.1091914,12.4405968 C34.3701853,13.40403 34.7744938,14.2653858 35.3218728,15.0236754 C35.8687635,15.7824594 36.5721528,16.391711 37.43082,16.8519246 C38.2897314,17.3123854 39.3168605,17.5427393 40.5129398,17.5427393 C41.7082867,17.5427393 42.7312653,17.3123854 43.5818756,16.8519246 C44.4319977,16.391711 45.1309924,15.7824594 45.6783714,15.0236754 C46.2255062,14.2653858 46.6295706,13.40403 46.8910527,12.4405968 C47.1518024,11.4779051 47.2824214,10.5018667 47.2824214,9.51272879 C47.2824214,8.50727824 47.1518024,7.52679094 46.8910527,6.57200838 C46.6295706,5.61772014 46.2255062,4.76081329 45.6783714,4.00178216 C45.1309924,3.24398684 44.4319977,2.63374657 43.5818756,2.17378013 C42.7312653,1.71331937 41.7082867,1.48345973 40.5129398,1.48345973 C39.3168605,1.48345973 38.2897314,1.71331937 37.43082,2.17378013 C36.5721528,2.63374657 35.8687635,3.24398684 35.3218728,4.00178216 C34.7744938,4.76081329 34.3701853,5.61772014 34.1091914,6.57200838 C33.8479535,7.52679094 33.7175786,8.50727824 33.7175786,9.51272879 C33.7175786,10.5018667 33.8479535,11.4779051 34.1091914,12.4405968 M32.5305328,5.90714555 C32.8840586,4.76501502 33.4145914,3.75511558 34.1218871,2.87720006 C34.8291828,1.99903737 35.7171478,1.30056066 36.7870027,0.780039806 C37.8561252,0.26026043 39.0983484,0 40.5129398,0 C41.9270429,0 43.1651156,0.26026043 44.2261812,0.780039806 C45.2867586,1.30056066 46.1708172,1.99903737 46.878357,2.87720006 C47.5854086,3.75511558 48.1159414,4.76501502 48.4694672,5.90714555 C48.8234813,7.04952324 49,8.2514667 49,9.51272879 C49,10.7747324 48.8234813,11.9766758 48.4694672,13.118312 C48.1159414,14.2609369 47.5854086,15.2666346 46.878357,16.1358995 C46.1708172,17.0054115 45.2867586,17.6999337 44.2261812,18.2199602 C43.1651156,18.7397396 41.9270429,19 40.5129398,19 C39.0983484,19 37.8561252,18.7397396 36.7870027,18.2199602 C35.7171478,17.6999337 34.8291828,17.0054115 34.1218871,16.1358995 C33.4145914,15.2666346 32.8840586,14.2609369 32.5305328,13.118312 C32.177007,11.9766758 32,10.7747324 32,9.51272879 C32,8.2514667 32.177007,7.04952324 32.5305328,5.90714555" id="Fill-3"></path>
                    <polygon id="Fill-6" points="53.7434944 1 53.7434944 17.5379919 64 17.5379919 64 19 52 19 52 1"></polygon>
                    <polygon id="Fill-8" points="64.7762781 1 70.5 17.1091362 70.5493609 17.1091362 76.2237219 1 78 1 71.4621805 19 69.5130198 19 63 1"></polygon>
                    <polygon id="Fill-10" points="92.8793595 1 92.8793595 2.4620081 82.6384279 2.4620081 82.6384279 8.96623844 92.2286463 8.96623844 92.2286463 10.4287339 82.6384279 10.4287339 82.6384279 17.5379919 93 17.5379919 93 19 81 19 81 1"></polygon>
                </g>
            </g>
        </g>
    </g>
</svg>