<?xml version="1.0" encoding="UTF-8"?>
<svg width="32px" height="32px" viewBox="0 0 32 32" version="1.1" xmlns="http://www.w3.org/2000/svg" xmlns:xlink="http://www.w3.org/1999/xlink">
    <!-- Generator: Sketch 48.2 (47327) - http://www.bohemiancoding.com/sketch -->
    <title>shape</title>
    <desc>Created with Sketch.</desc>
    <defs>
        <linearGradient x1="100%" y1="46.6483991%" x2="-15.7748423%" y2="117.167358%" id="linearGradient-1">
            <stop stop-color="#E02386" offset="0%"></stop>
            <stop stop-color="#CF2685" offset="44.430064%"></stop>
            <stop stop-color="#893081" offset="100%"></stop>
        </linearGradient>
        <linearGradient x1="100%" y1="39.5213372%" x2="-15.7748423%" y2="117.167358%" id="linearGradient-2">
            <stop stop-color="#E02386" offset="0%"></stop>
            <stop stop-color="#CF2685" offset="44.430064%"></stop>
            <stop stop-color="#893081" offset="100%"></stop>
        </linearGradient>
        <linearGradient x1="56.2638391%" y1="0%" x2="92.5876691%" y2="97.1334356%" id="linearGradient-3">
            <stop stop-color="#E02386" offset="0%"></stop>
            <stop stop-color="#CF2685" offset="44.430064%"></stop>
            <stop stop-color="#913B8E" offset="100%"></stop>
        </linearGradient>
        <path d="M15.9998815,0 C7.17748148,0 0,7.15111439 0,15.9408413 C0,24.7311587 7.17748148,31.8823911 15.9998815,31.8823911 C24.8224,31.8823911 32,24.7311587 32,15.9408413 C32,7.15111439 24.8224,0 15.9998815,0 Z M0.996266667,15.9408413 C0.996266667,7.69830258 7.72693333,0.992590406 15.9998815,0.992590406 C24.2731852,0.992590406 31.0038519,7.69830258 31.0038519,15.9408413 C31.0038519,24.1837343 24.2731852,30.8900369 15.9998815,30.8900369 C7.72693333,30.8900369 0.996266667,24.1837343 0.996266667,15.9408413 Z" id="path-4"></path>
    </defs>
    <g id="Mobile" stroke="none" stroke-width="1" fill="none" fill-rule="evenodd" transform="translate(-22.000000, -24.000000)">
        <g id="header" transform="translate(-18.000000, -205.000000)">
            <g id="logo" transform="translate(40.000000, 229.000000)">
                <g id="shape">
                    <path d="M22.0957048,6.1402214 C21.9945092,6.14081181 21.8927232,6.14317343 21.7907011,6.14730627 C21.7729889,6.14730627 21.7564576,6.14848708 21.7387454,6.14848708 C19.3428782,6.24531365 17.0828044,7.19940959 15.3421697,8.859631 L11.419631,12.7692989 C10.321476,11.0041033 8.37195572,9.88693727 6.2299631,9.88693727 C2.8599262,9.88693727 0.118081181,12.6287823 0.118081181,15.9988192 C0.118081181,19.3688561 2.8599262,22.1107011 6.2299631,22.1107011 C6.25712177,22.1107011 6.28309963,22.1095203 6.3102583,22.1095203 C6.36103321,22.1083395 6.41062731,22.1083395 6.46140221,22.1059779 C6.47675277,22.1059779 6.49210332,22.104797 6.50745387,22.1036162 C7.59498155,22.0563838 8.63173432,21.7257565 9.54095941,21.138893 L9.55512915,21.1507011 L12.6689299,18.7926199 L12.7834686,19.1149815 L12.7858303,19.1210037 C14.1295941,23.1498155 17.8892989,25.857417 22.1390406,25.857417 C27.5754982,25.857417 31.9976384,21.4352768 31.9976384,15.9988192 C31.9976384,15.9397786 31.9976384,15.880738 31.9964576,15.8216974 L31.9976384,15.8216974 C31.9515867,13.2262731 30.9053875,10.792738 29.0525756,8.96944649 C27.3204428,7.26659779 25.0662731,6.27719557 22.6572989,6.15321033 L22.644428,6.15321033 C22.5688561,6.1496679 22.4932841,6.14612546 22.4178303,6.14376384 L22.3916162,6.14376384 C22.3217122,6.14175646 22.2525166,6.14057565 22.1827306,6.1402214 L22.0957048,6.1402214 Z M22.1969004,11.5837638 C23.1557196,10.8670111 24.295203,10.4879705 25.4949077,10.4879705 C28.4906273,10.4879705 30.9029077,12.8234982 31.002214,15.8122509 C31.0035129,15.8736531 31.0045756,15.9362362 31.0045756,15.9988192 C31.0045756,20.8861993 27.0277196,24.8632915 22.1390406,24.8632915 C18.3179336,24.8632915 14.9372694,22.4295203 13.7268192,18.7997048 L13.4990406,18.164428 L21.8532841,11.8364576 L21.8556458,11.8388192 L22.1969004,11.5837638 Z M1.11232472,16 L1.11232472,15.9976384 C1.11232472,14.5865683 1.68619926,13.3077491 2.61313653,12.3819926 C3.53889299,11.4550554 4.81889299,10.8811808 6.2299631,10.8811808 C8.10273063,10.8811808 9.7995572,11.9014022 10.6934317,13.4931365 L6.16383764,18.0085609 L6.14612546,18.0274539 C6.11896679,18.0582731 6.08826568,18.0876753 6.0504797,18.1230996 C5.50612546,18.6402952 4.79173432,18.9248708 4.03837638,18.9248708 C2.42538745,18.9248708 1.11350554,17.6129889 1.11232472,16 Z" id="Clip-2" fill="url(#linearGradient-1)"></path>
                    <path d="M22.0957048,6.1402214 C21.9945092,6.14081181 21.8927232,6.14317343 21.7907011,6.14730627 C21.7729889,6.14730627 21.7564576,6.14848708 21.7387454,6.14848708 C19.3428782,6.24531365 17.0828044,7.19940959 15.3421697,8.859631 L11.419631,12.7692989 C10.321476,11.0041033 8.37195572,9.88693727 6.2299631,9.88693727 C2.8599262,9.88693727 0.118081181,12.6287823 0.118081181,15.9988192 C0.118081181,19.3688561 2.8599262,22.1107011 6.2299631,22.1107011 C6.25712177,22.1107011 6.28309963,22.1095203 6.3102583,22.1095203 C6.36103321,22.1083395 6.41062731,22.1083395 6.46140221,22.1059779 C6.47675277,22.1059779 6.49210332,22.104797 6.50745387,22.1036162 C7.59498155,22.0563838 8.63173432,21.7257565 9.54095941,21.138893 L9.55512915,21.1507011 L12.6689299,18.7926199 L12.7834686,19.1149815 L12.7858303,19.1210037 C14.1295941,23.1498155 17.8892989,25.857417 22.1390406,25.857417 C27.5754982,25.857417 31.9976384,21.4352768 31.9976384,15.9988192 C31.9976384,15.9397786 31.9976384,15.880738 31.9964576,15.8216974 L31.9976384,15.8216974 C31.9515867,13.2262731 30.9053875,10.792738 29.0525756,8.96944649 C27.3204428,7.26659779 25.0662731,6.27719557 22.6572989,6.15321033 L22.644428,6.15321033 C22.5688561,6.1496679 22.4932841,6.14612546 22.4178303,6.14376384 L22.3916162,6.14376384 C22.3217122,6.14175646 22.2525166,6.14057565 22.1827306,6.1402214 L22.0957048,6.1402214 Z M22.1969004,11.5837638 C23.1557196,10.8670111 24.295203,10.4879705 25.4949077,10.4879705 C28.4906273,10.4879705 30.9029077,12.8234982 31.002214,15.8122509 C31.0035129,15.8736531 31.0045756,15.9362362 31.0045756,15.9988192 C31.0045756,20.8861993 27.0277196,24.8632915 22.1390406,24.8632915 C18.3179336,24.8632915 14.9372694,22.4295203 13.7268192,18.7997048 L13.4990406,18.164428 L21.8532841,11.8364576 L21.8556458,11.8388192 L22.1969004,11.5837638 Z M1.11232472,16 L1.11232472,15.9976384 C1.11232472,14.5865683 1.68619926,13.3077491 2.61313653,12.3819926 C3.53889299,11.4550554 4.81889299,10.8811808 6.2299631,10.8811808 C8.10273063,10.8811808 9.7995572,11.9014022 10.6934317,13.4931365 L6.16383764,18.0085609 L6.14612546,18.0274539 C6.11896679,18.0582731 6.08826568,18.0876753 6.0504797,18.1230996 C5.50612546,18.6402952 4.79173432,18.9248708 4.03837638,18.9248708 C2.42538745,18.9248708 1.11350554,17.6129889 1.11232472,16 Z" id="Clip-2" fill="url(#linearGradient-2)"></path>
                    <path d="M15.9998815,0 C7.17748148,0 0,7.15111439 0,15.9408413 C0,24.7311587 7.17748148,31.8823911 15.9998815,31.8823911 C24.8224,31.8823911 32,24.7311587 32,15.9408413 C32,7.15111439 24.8224,0 15.9998815,0 Z M0.996266667,15.9708405 C0.996266667,7.71176008 7.72693333,0.992590406 15.9998815,0.992590406 C24.2731852,0.992590406 31.0038519,7.71176008 31.0038519,15.9708405 C31.0038519,24.2302759 24.2731852,30.9500372 15.9998815,30.9500372 C7.72693333,30.9500372 0.996266667,24.2302759 0.996266667,15.9708405 Z" id="Clip-2" fill="url(#linearGradient-3)"></path>
                    <g id="Clip-2">
                        <mask id="mask-5" fill="white">
                            <use xlink:href="#path-4"></use>
                        </mask>
                        <use id="Mask" fill="url(#linearGradient-3)" xlink:href="#path-4"></use>
                        <path d="M22.481979,6.1402214 C22.3847311,6.14081181 22.2869158,6.14317343 22.1888735,6.14730627 C22.1718523,6.14730627 22.1559658,6.14848708 22.1389446,6.14848708 C19.8365402,6.24531365 17.6646318,7.19940959 15.9918993,8.859631 L12.2223787,12.7692989 C11.1670627,11.0041033 9.29359317,9.88693727 7.23515964,9.88693727 C3.99658782,9.88693727 1.36170213,12.6287823 1.36170213,15.9988192 C1.36170213,19.3688561 3.99658782,22.1107011 7.23515964,22.1107011 C7.26125886,22.1107011 7.28622332,22.1095203 7.31232253,22.1095203 C7.36111671,22.1083395 7.40877614,22.1083395 7.45757032,22.1059779 C7.47232205,22.1059779 7.48707378,22.104797 7.50182551,22.1036162 C8.54692875,22.0563838 9.54323781,21.7257565 10.416994,21.138893 L10.430611,21.1507011 L13.4229425,18.7926199 L13.533013,19.1149815 L13.5352825,19.1210037 C14.8266262,23.1498155 18.439665,25.857417 22.5236243,25.857417 C27.7480058,25.857417 31.9976384,21.4352768 31.9976384,15.9988192 C31.9976384,15.9397786 31.9976384,15.880738 31.9965036,15.8216974 L31.9976384,15.8216974 C31.9533832,13.2262731 30.9479961,10.792738 29.1674625,8.96944649 C27.5029001,7.26659779 25.3366655,6.27719557 23.0216654,6.15321033 L23.0092966,6.15321033 C22.9366727,6.1496679 22.8640488,6.14612546 22.7915384,6.14376384 L22.766347,6.14376384 C22.6991699,6.14175646 22.6326736,6.14057565 22.56561,6.1402214 L22.481979,6.1402214 Z M22.579227,11.5837638 C23.5006426,10.8670111 24.5956748,10.4879705 25.7485792,10.4879705 C28.6274357,10.4879705 30.9456132,12.8234982 31.0410455,15.8122509 C31.0422937,15.8736531 31.043315,15.9362362 31.043315,15.9988192 C31.043315,20.8861993 27.221596,24.8632915 22.5236243,24.8632915 C18.8515786,24.8632915 15.6027941,22.4295203 14.4395635,18.7997048 L14.2206706,18.164428 L22.2490152,11.8364576 L22.2512847,11.8388192 L22.579227,11.5837638 Z M2.31716025,16 L2.31716025,15.9976384 C2.31716025,14.5865683 2.86864795,13.3077491 3.75942541,12.3819926 C4.64906813,11.4550554 5.87913535,10.8811808 7.23515964,10.8811808 C9.03487054,10.8811808 10.6655039,11.9014022 11.5245084,13.4931365 L7.17161374,18.0085609 L7.15459251,18.0274539 C7.1284933,18.0582731 7.09898984,18.0876753 7.06267789,18.1230996 C6.5395589,18.6402952 5.85303614,18.9248708 5.12906669,18.9248708 C3.57900042,18.9248708 2.318295,17.6129889 2.31716025,16 Z" fill="url(#linearGradient-1)" mask="url(#mask-5)"></path>
                    </g>
                </g>
            </g>
        </g>
    </g>
</svg>