<?xml version="1.0" encoding="UTF-8"?>
<svg width="209px" height="130px" viewBox="0 0 209 130" version="1.1" xmlns="http://www.w3.org/2000/svg" xmlns:xlink="http://www.w3.org/1999/xlink">
    <!-- Generator: Sketch 48.2 (47327) - http://www.bohemiancoding.com/sketch -->
    <title>shape</title>
    <desc>Created with Sketch.</desc>
    <defs>
        <linearGradient x1="100%" y1="39.5213372%" x2="-15.7748423%" y2="117.167358%" id="linearGradient-1">
            <stop stop-color="#E02386" offset="0%"></stop>
            <stop stop-color="#CF2685" offset="44.430064%"></stop>
            <stop stop-color="#893081" offset="100%"></stop>
        </linearGradient>
    </defs>
    <g id="Evolve-1.0---Landing-Page" stroke="none" stroke-width="1" fill="none" fill-rule="evenodd" transform="translate(-856.000000, -1593.000000)">
        <g id="what-we-do" transform="translate(175.000000, 1159.000000)" fill="url(#linearGradient-1)">
            <g id="content" transform="translate(133.000000, 430.000000)">
                <path d="M692.083662,4 C691.420231,4.00387066 690.75293,4.01935329 690.08408,4.04644789 C689.967961,4.04644789 689.859582,4.0541892 689.743462,4.0541892 C674.036336,4.68897696 659.219461,10.9439588 647.807989,21.8282465 L622.092118,47.4597378 C614.892696,35.8872472 602.111786,28.5631899 588.069042,28.5631899 C565.975332,28.5631899 548,46.5385214 548,68.632232 C548,90.7259427 565.975332,108.701274 588.069042,108.701274 C588.247092,108.701274 588.417401,108.693533 588.595452,108.693533 C588.928328,108.685792 589.253463,108.685792 589.58634,108.670309 C589.686977,108.670309 589.787614,108.662568 589.888251,108.654826 C597.018001,108.345174 603.814875,106.177606 609.775687,102.330173 L609.868583,102.407586 L630.282428,86.9481813 L631.033336,89.0615601 L631.048818,89.1010408 C639.858434,115.513631 664.506778,133.264464 692.367768,133.264464 C728.008778,133.264464 757,104.273242 757,68.632232 C757,68.2451663 757,67.8581006 756.992259,67.4710349 L757,67.4710349 C756.698089,50.4556263 749.839284,34.501552 737.692388,22.5481888 C726.336655,11.3844396 711.558486,4.89799244 695.765431,4.08515446 L695.68105,4.08515446 C695.185606,4.06193051 694.690162,4.03870657 694.195492,4.02322394 L694.023635,4.02322394 C693.565349,4.01006371 693.111708,4.00232239 692.654197,4 L692.083662,4 Z M692.747092,39.6874583 C699.033039,34.9884806 706.503408,32.5035188 714.368583,32.5035188 C734.008297,32.5035188 749.823028,47.8150641 750.474072,67.4091044 C750.482588,67.8116527 750.489555,68.2219424 750.489555,68.632232 C750.489555,100.673531 724.417583,126.747052 692.367768,126.747052 C667.316875,126.747052 645.153493,110.791429 637.217872,86.9946292 L635.724572,82.8298022 L690.49437,41.3440996 L690.509853,41.3595822 L692.747092,39.6874583 Z M554.518187,68.6399733 L554.518187,68.6244907 C554.518187,59.3736203 558.280465,50.989777 564.357397,44.9205867 C570.426587,38.8436551 578.818172,35.0813764 588.069042,35.0813764 C600.346766,35.0813764 611.471035,41.7698718 617.33121,52.2051633 L587.635529,81.8079487 L587.519409,81.9318098 C587.341359,82.1338581 587.140084,82.3266168 586.892362,82.5588562 C583.323617,85.9495518 578.640121,87.8152085 573.701163,87.8152085 C563.126528,87.8152085 554.525928,79.2146085 554.518187,68.6399733 Z" id="shape"></path>
            </g>
        </g>
    </g>
</svg>